<svg xmlns="http://www.w3.org/2000/svg" xmlns:xlink="http://www.w3.org/1999/xlink" width="500" zoomAndPan="magnify" viewBox="0 0 375 374.999991" height="500" preserveAspectRatio="xMidYMid meet" version="1.0"><defs><g/><clipPath id="e41f027342"><path d="M 54.816406 157 L 73 157 L 73 175 L 54.816406 175 Z M 54.816406 157 " clip-rule="nonzero"/></clipPath><clipPath id="19d0468af2"><path d="M 68 192 L 77 192 L 77 200.855469 L 68 200.855469 Z M 68 192 " clip-rule="nonzero"/></clipPath></defs><path fill="#5a5a5a" d="M 100.839844 153.351562 C 101.007812 154.035156 100.597656 154.714844 99.910156 154.882812 C 99.226562 155.050781 98.539062 154.640625 98.371094 153.957031 C 98.371094 153.925781 96.039062 144.980469 104.714844 143.902344 C 110.511719 143.191406 111.699219 146.117188 113.070312 149.53125 C 113.621094 150.878906 114.199219 152.320312 115.207031 153.488281 C 118.515625 157.292969 120.222656 158.1875 120.222656 158.1875 C 120.847656 158.523438 121.078125 159.28125 120.742188 159.902344 C 120.40625 160.523438 119.644531 160.75 119.019531 160.417969 C 119.019531 160.417969 116.898438 159.296875 113.285156 155.140625 C 112.003906 153.652344 111.332031 152.015625 110.707031 150.46875 C 109.730469 148.042969 108.878906 145.9375 105.019531 146.421875 C 99.226562 147.117188 100.839844 153.320312 100.839844 153.351562 Z M 100.839844 153.351562 " fill-opacity="1" fill-rule="nonzero"/><path fill="#5a5a5a" d="M 111.867188 151.210938 C 111.164062 151.199219 110.601562 150.636719 110.617188 149.9375 C 110.632812 149.242188 111.195312 148.679688 111.898438 148.695312 C 111.929688 148.695312 121.792969 148.710938 128.199219 159.917969 C 129.738281 162.617188 130.152344 165.042969 129.769531 167.089844 C 129.417969 168.984375 128.382812 170.5625 126.917969 171.746094 C 125.515625 172.882812 123.730469 173.683594 121.78125 174.078125 C 118.410156 174.777344 114.503906 174.335938 111.304688 172.546875 C 110.691406 172.214844 110.464844 171.441406 110.816406 170.835938 C 111.152344 170.226562 111.929688 170 112.539062 170.347656 C 115.191406 171.820312 118.457031 172.199219 121.261719 171.609375 C 122.816406 171.289062 124.234375 170.667969 125.300781 169.789062 C 126.308594 168.96875 127.027344 167.894531 127.269531 166.617188 C 127.542969 165.117188 127.207031 163.296875 125.988281 161.144531 C 120.316406 151.226562 111.882812 151.210938 111.867188 151.210938 Z M 111.867188 151.210938 " fill-opacity="1" fill-rule="nonzero"/><path fill="#5a5a5a" d="M 120.757812 173.367188 C 120.4375 172.746094 120.679688 171.988281 121.292969 171.667969 C 121.917969 171.351562 122.679688 171.59375 123 172.199219 C 123 172.214844 125.285156 176.429688 121.0625 179.066406 C 120.46875 179.445312 119.691406 179.265625 119.308594 178.675781 C 118.929688 178.082031 119.109375 177.308594 119.707031 176.929688 C 121.949219 175.535156 120.757812 173.367188 120.757812 173.367188 Z M 120.757812 173.367188 " fill-opacity="1" fill-rule="nonzero"/><path fill="#5a5a5a" d="M 127.390625 166.996094 C 127.132812 166.347656 127.453125 165.617188 128.109375 165.359375 C 128.765625 165.101562 129.496094 165.421875 129.753906 166.074219 C 129.769531 166.101562 133.566406 175.367188 128.246094 179.582031 C 128.140625 179.660156 128.015625 179.765625 127.863281 179.871094 C 125.347656 181.722656 121.382812 183.269531 117.417969 183.570312 C 113.316406 183.890625 109.167969 182.875 106.484375 179.523438 C 106.421875 179.445312 106.347656 179.339844 106.253906 179.21875 C 100.644531 171.667969 107.429688 167.648438 107.445312 167.636719 C 108.039062 167.269531 108.832031 167.453125 109.199219 168.058594 C 109.566406 168.652344 109.382812 169.4375 108.773438 169.804688 C 108.757812 169.820312 104.347656 172.410156 108.296875 177.71875 C 108.34375 177.777344 108.40625 177.855469 108.480469 177.960938 C 110.554688 180.539062 113.894531 181.3125 117.234375 181.054688 C 120.726562 180.78125 124.1875 179.433594 126.355469 177.839844 C 126.445312 177.777344 126.539062 177.703125 126.660156 177.597656 C 130.472656 174.566406 127.390625 167.011719 127.390625 166.996094 Z M 127.390625 166.996094 " fill-opacity="1" fill-rule="nonzero"/><path fill="#5a5a5a" d="M 105.660156 172.125 C 106.347656 172.304688 106.742188 172.988281 106.558594 173.667969 C 106.378906 174.351562 105.691406 174.746094 105.003906 174.566406 C 104.972656 174.566406 95.71875 172.289062 94.695312 157.824219 C 94.648438 157.125 95.183594 156.519531 95.886719 156.472656 C 96.585938 156.429688 97.195312 156.960938 97.242188 157.65625 C 98.128906 170.289062 105.628906 172.109375 105.660156 172.125 Z M 105.660156 172.125 " fill-opacity="1" fill-rule="nonzero"/><path fill="#5a5a5a" d="M 96.875 160.949219 C 97.5625 161.097656 98.003906 161.765625 97.851562 162.449219 C 97.699219 163.132812 97.027344 163.570312 96.34375 163.417969 C 96.3125 163.417969 84.28125 160.691406 82.265625 170.347656 C 82.128906 171.03125 81.460938 171.472656 80.773438 171.335938 C 80.085938 171.199219 79.644531 170.53125 79.78125 169.847656 C 82.328125 157.640625 96.847656 160.933594 96.875 160.949219 Z M 96.875 160.949219 " fill-opacity="1" fill-rule="nonzero"/><path fill="#5a5a5a" d="M 89.527344 161.222656 C 90.089844 161.644531 90.195312 162.433594 89.769531 162.996094 C 89.34375 163.554688 88.550781 163.660156 87.984375 163.238281 C 87.972656 163.222656 83.808594 160.160156 83.929688 153.457031 C 83.945312 152.757812 84.523438 152.199219 85.226562 152.214844 C 85.925781 152.230469 86.492188 152.804688 86.476562 153.503906 C 86.371094 158.902344 89.511719 161.222656 89.527344 161.222656 Z M 89.527344 161.222656 " fill-opacity="1" fill-rule="nonzero"/><path fill="#5a5a5a" d="M 103.296875 144.785156 C 103.859375 145.207031 103.96875 145.996094 103.554688 146.558594 C 103.144531 147.117188 102.335938 147.226562 101.773438 146.816406 C 101.742188 146.800781 91.996094 139.339844 78.667969 145.828125 C 78.042969 146.132812 77.28125 145.875 76.976562 145.253906 C 76.671875 144.632812 76.929688 143.875 77.554688 143.570312 C 92.285156 136.367188 103.265625 144.753906 103.296875 144.785156 Z M 103.296875 144.785156 " fill-opacity="1" fill-rule="nonzero"/><path fill="#5a5a5a" d="M 85.667969 157.371094 C 84.980469 157.503906 84.3125 157.066406 84.160156 156.382812 C 84.019531 155.703125 84.464844 155.035156 85.148438 154.882812 C 85.164062 154.882812 91.234375 153.667969 90.335938 148.515625 C 90.210938 147.832031 90.683594 147.164062 91.371094 147.058594 C 92.058594 146.9375 92.730469 147.40625 92.835938 148.089844 C 94.175781 155.6875 85.699219 157.355469 85.667969 157.371094 Z M 85.667969 157.371094 " fill-opacity="1" fill-rule="nonzero"/><path fill="#5a5a5a" d="M 77.859375 143.433594 C 78.546875 143.296875 79.21875 143.753906 79.355469 144.433594 C 79.492188 145.117188 79.035156 145.785156 78.347656 145.921875 C 78.316406 145.921875 67.871094 147.890625 63.386719 155.867188 C 63.050781 156.472656 62.273438 156.703125 61.664062 156.351562 C 61.054688 156.019531 60.824219 155.246094 61.175781 154.640625 C 66.238281 145.617188 77.828125 143.449219 77.859375 143.433594 Z M 77.859375 143.433594 " fill-opacity="1" fill-rule="nonzero"/><path fill="#5a5a5a" d="M 69.59375 149.410156 C 68.894531 149.5 68.253906 149.015625 68.160156 148.332031 C 68.070312 147.632812 68.558594 146.996094 69.242188 146.90625 C 69.273438 146.90625 78.132812 145.585938 79.875 151.957031 C 80.910156 155.761719 78.53125 158.765625 76.59375 161.207031 C 75.632812 162.417969 74.808594 163.449219 74.886719 163.933594 C 74.976562 164.632812 74.488281 165.269531 73.804688 165.359375 C 73.101562 165.453125 72.460938 164.964844 72.371094 164.285156 C 72.15625 162.738281 73.285156 161.328125 74.597656 159.644531 C 76.167969 157.65625 78.121094 155.199219 77.417969 152.609375 C 76.273438 148.421875 69.609375 149.394531 69.59375 149.410156 Z M 69.59375 149.410156 " fill-opacity="1" fill-rule="nonzero"/><path fill="#5a5a5a" d="M 76.03125 158.140625 C 76.015625 157.445312 76.578125 156.867188 77.28125 156.867188 C 77.980469 156.855469 78.5625 157.414062 78.5625 158.113281 C 78.5625 158.113281 78.578125 160.691406 81.152344 161.964844 C 81.78125 162.265625 82.039062 163.023438 81.734375 163.648438 C 81.429688 164.269531 80.667969 164.527344 80.039062 164.222656 C 76.0625 162.265625 76.03125 158.15625 76.03125 158.140625 Z M 76.03125 158.140625 " fill-opacity="1" fill-rule="nonzero"/><path fill="#5a5a5a" d="M 109.824219 180.707031 C 110.191406 180.113281 110.96875 179.933594 111.578125 180.296875 C 112.171875 180.660156 112.355469 181.433594 111.988281 182.039062 C 111.957031 182.070312 104.011719 195.339844 86.246094 183.632812 C 85.667969 183.253906 85.5 182.464844 85.898438 181.875 C 86.277344 181.296875 87.070312 181.128906 87.664062 181.507812 C 103.207031 191.773438 109.808594 180.734375 109.824219 180.707031 Z M 109.824219 180.707031 " fill-opacity="1" fill-rule="nonzero"/><path fill="#5a5a5a" d="M 99.332031 167.46875 C 100.035156 167.421875 100.628906 167.953125 100.675781 168.652344 C 100.71875 169.347656 100.1875 169.941406 99.484375 169.984375 C 99.453125 169.984375 90.335938 170.484375 88.582031 176.109375 C 88.367188 176.777344 87.664062 177.15625 86.996094 176.945312 C 86.324219 176.734375 85.941406 176.035156 86.15625 175.367188 C 88.445312 168.042969 99.300781 167.46875 99.332031 167.46875 Z M 99.332031 167.46875 " fill-opacity="1" fill-rule="nonzero"/><path fill="#5a5a5a" d="M 114.335938 153.03125 C 115.039062 153.078125 115.558594 153.683594 115.511719 154.382812 C 115.464844 155.078125 114.855469 155.59375 114.15625 155.550781 C 114.140625 155.550781 108.96875 155.09375 106.347656 161.144531 C 106.074219 161.78125 105.324219 162.085938 104.667969 161.8125 C 104.027344 161.539062 103.722656 160.796875 104 160.144531 C 107.351562 152.425781 114.324219 153.03125 114.335938 153.03125 Z M 114.335938 153.03125 " fill-opacity="1" fill-rule="nonzero"/><path fill="#5a5a5a" d="M 77.996094 145.9375 C 77.296875 145.875 76.777344 145.269531 76.839844 144.570312 C 76.898438 143.875 77.507812 143.359375 78.210938 143.417969 C 78.226562 143.417969 83.488281 143.828125 86.230469 147.890625 C 86.628906 148.46875 86.460938 149.257812 85.882812 149.652344 C 85.300781 150.046875 84.507812 149.878906 84.113281 149.300781 C 82.054688 146.253906 78.011719 145.9375 77.996094 145.9375 Z M 77.996094 145.9375 " fill-opacity="1" fill-rule="nonzero"/><path fill="#060606" d="M 66.40625 178.566406 C 67.15625 178.460938 67.855469 178.992188 67.949219 179.734375 C 68.054688 180.476562 67.519531 181.175781 66.773438 181.265625 C 66.027344 181.359375 65.324219 180.84375 65.234375 180.097656 C 65.125 179.355469 65.660156 178.660156 66.40625 178.566406 Z M 67.582031 178.007812 L 68.601562 176.671875 C 67.976562 176.292969 67.246094 176.082031 66.484375 176.109375 L 66.710938 177.765625 C 67.003906 177.777344 67.308594 177.871094 67.582031 178.007812 Z M 68.648438 179.25 L 70.3125 179.023438 C 70.128906 178.28125 69.746094 177.628906 69.214844 177.128906 L 68.191406 178.460938 C 68.390625 178.6875 68.558594 178.960938 68.648438 179.25 Z M 68.511719 180.902344 L 69.855469 181.917969 C 70.234375 181.296875 70.449219 180.570312 70.417969 179.8125 L 68.757812 180.039062 C 68.742188 180.328125 68.664062 180.628906 68.511719 180.902344 Z M 67.261719 181.964844 L 67.492188 183.617188 C 68.238281 183.433594 68.894531 183.054688 69.398438 182.523438 L 68.054688 181.507812 C 67.824219 181.722656 67.550781 181.875 67.261719 181.964844 Z M 65.597656 181.84375 L 64.578125 183.175781 C 65.203125 183.554688 65.933594 183.769531 66.699219 183.738281 L 66.46875 182.085938 C 66.179688 182.054688 65.875 181.980469 65.597656 181.84375 Z M 64.53125 180.585938 L 62.871094 180.8125 C 63.050781 181.554688 63.433594 182.207031 63.96875 182.707031 L 64.988281 181.371094 C 64.792969 181.144531 64.625 180.871094 64.53125 180.585938 Z M 64.667969 178.929688 L 63.328125 177.914062 C 62.945312 178.539062 62.730469 179.265625 62.761719 180.023438 L 64.425781 179.796875 C 64.441406 179.507812 64.515625 179.203125 64.667969 178.929688 Z M 63.800781 177.308594 L 65.140625 178.324219 C 65.371094 178.128906 65.628906 177.960938 65.933594 177.871094 L 65.707031 176.21875 C 64.957031 176.382812 64.304688 176.777344 63.800781 177.308594 Z M 66.4375 174.519531 C 67.015625 174.503906 67.582031 174.578125 68.117188 174.730469 L 68.695312 173.761719 L 69.078125 173.914062 L 69.457031 174.0625 L 69.167969 175.15625 C 69.671875 175.429688 70.128906 175.777344 70.507812 176.1875 L 71.5 175.625 L 71.761719 175.945312 L 72.019531 176.261719 L 71.226562 177.066406 C 71.515625 177.535156 71.746094 178.066406 71.882812 178.628906 L 73.027344 178.628906 L 73.085938 179.039062 L 73.148438 179.445312 L 72.050781 179.75 C 72.066406 180.328125 71.988281 180.886719 71.835938 181.417969 L 72.8125 181.996094 L 72.507812 182.753906 L 71.410156 182.464844 C 71.136719 182.964844 70.785156 183.421875 70.371094 183.800781 L 70.9375 184.785156 L 70.296875 185.300781 L 69.488281 184.511719 C 69.015625 184.800781 68.480469 185.027344 67.917969 185.164062 L 67.917969 186.300781 L 67.503906 186.363281 L 67.09375 186.421875 L 66.789062 185.332031 C 66.210938 185.347656 65.644531 185.269531 65.109375 185.117188 L 64.53125 186.089844 L 64.152344 185.9375 L 63.769531 185.785156 L 64.058594 184.695312 C 63.554688 184.421875 63.097656 184.070312 62.71875 183.664062 L 61.726562 184.222656 L 61.464844 183.90625 L 61.207031 183.585938 L 62 182.78125 C 61.710938 182.3125 61.480469 181.78125 61.34375 181.222656 L 60.199219 181.222656 L 60.140625 180.8125 L 60.078125 180.402344 L 61.175781 180.097656 C 61.160156 179.523438 61.238281 178.960938 61.390625 178.429688 L 60.414062 177.855469 L 60.71875 177.097656 L 61.816406 177.386719 C 62.09375 176.882812 62.441406 176.429688 62.855469 176.050781 L 62.289062 175.066406 L 62.929688 174.550781 L 63.738281 175.335938 C 64.210938 175.050781 64.746094 174.824219 65.308594 174.6875 L 65.308594 173.546875 L 65.722656 173.488281 L 66.132812 173.425781 Z M 66.4375 174.519531 " fill-opacity="1" fill-rule="evenodd"/><g clip-path="url(#e41f027342)"><path fill="#060606" d="M 63.523438 160.628906 C 66.347656 160.628906 68.632812 162.902344 68.632812 165.710938 C 68.632812 168.515625 66.347656 170.789062 63.523438 170.789062 C 60.703125 170.789062 58.417969 168.515625 58.417969 165.710938 C 58.417969 162.902344 60.703125 160.628906 63.523438 160.628906 Z M 63.523438 163.875 C 64.53125 163.875 65.355469 164.691406 65.355469 165.695312 C 65.355469 166.695312 64.53125 167.511719 63.523438 167.511719 C 62.519531 167.511719 61.695312 166.695312 61.695312 165.695312 C 61.695312 164.691406 62.503906 163.875 63.523438 163.875 Z M 63.523438 161.464844 C 65.875 161.464844 67.78125 163.359375 67.78125 165.695312 C 67.78125 168.027344 65.875 169.925781 63.523438 169.925781 C 61.175781 169.925781 59.269531 168.027344 59.269531 165.695312 C 59.253906 163.359375 61.160156 161.464844 63.523438 161.464844 Z M 64.273438 158.535156 C 65.050781 158.613281 65.78125 158.808594 66.453125 159.113281 L 67.382812 157.929688 L 68.328125 158.476562 L 67.765625 159.871094 C 68.375 160.3125 68.921875 160.855469 69.367188 161.464844 L 70.769531 160.902344 L 71.042969 161.371094 L 71.316406 161.84375 L 70.128906 162.765625 C 70.433594 163.449219 70.632812 164.175781 70.707031 164.9375 L 72.203125 165.148438 L 72.203125 166.238281 L 70.707031 166.453125 C 70.632812 167.226562 70.433594 167.953125 70.128906 168.621094 L 71.316406 169.546875 L 70.769531 170.484375 L 69.367188 169.925781 C 68.921875 170.53125 68.375 171.078125 67.765625 171.515625 L 68.328125 172.910156 L 67.382812 173.457031 L 66.453125 172.273438 C 65.765625 172.578125 65.035156 172.773438 64.273438 172.851562 L 64.058594 174.335938 L 62.960938 174.335938 L 62.746094 172.851562 C 61.96875 172.773438 61.238281 172.578125 60.566406 172.273438 L 59.636719 173.457031 L 58.691406 172.910156 L 59.253906 171.515625 C 58.644531 171.078125 58.097656 170.53125 57.652344 169.925781 L 56.25 170.484375 L 55.703125 169.546875 L 56.890625 168.621094 C 56.585938 167.9375 56.386719 167.210938 56.3125 166.453125 L 54.816406 166.238281 L 54.816406 165.148438 L 56.3125 164.9375 C 56.386719 164.164062 56.585938 163.433594 56.890625 162.765625 L 55.703125 161.84375 L 55.976562 161.371094 L 56.25 160.902344 L 57.652344 161.464844 C 58.097656 160.855469 58.644531 160.3125 59.253906 159.871094 L 58.691406 158.476562 L 59.636719 157.929688 L 60.566406 159.113281 C 61.253906 158.808594 61.984375 158.613281 62.746094 158.535156 L 62.960938 157.050781 L 64.058594 157.050781 Z M 64.273438 158.535156 " fill-opacity="1" fill-rule="evenodd"/></g><g clip-path="url(#19d0468af2)"><path fill="#060606" d="M 72.628906 195.855469 C 73.101562 195.855469 73.5 196.25 73.5 196.71875 C 73.5 197.1875 73.101562 197.582031 72.628906 197.582031 C 72.15625 197.582031 71.761719 197.1875 71.761719 196.71875 C 71.761719 196.25 72.140625 195.855469 72.628906 195.855469 Z M 73.40625 195.597656 L 74.15625 194.851562 C 73.804688 194.566406 73.363281 194.367188 72.875 194.324219 L 72.875 195.382812 C 73.070312 195.414062 73.253906 195.488281 73.40625 195.597656 Z M 73.972656 196.476562 L 75.039062 196.476562 C 74.992188 195.992188 74.796875 195.550781 74.503906 195.203125 L 73.757812 195.945312 C 73.863281 196.097656 73.941406 196.277344 73.972656 196.476562 Z M 73.757812 197.492188 L 74.503906 198.234375 C 74.796875 197.886719 74.992188 197.445312 75.039062 196.960938 L 73.972656 196.960938 C 73.941406 197.15625 73.863281 197.339844 73.757812 197.492188 Z M 72.875 198.050781 L 72.875 199.113281 C 73.363281 199.070312 73.804688 198.871094 74.15625 198.582031 L 73.40625 197.839844 C 73.253906 197.945312 73.070312 198.023438 72.875 198.050781 Z M 71.851562 197.839844 L 71.105469 198.582031 C 71.457031 198.871094 71.898438 199.070312 72.386719 199.113281 L 72.386719 198.050781 C 72.1875 198.023438 72.003906 197.945312 71.851562 197.839844 Z M 71.273438 196.960938 L 70.203125 196.960938 C 70.25 197.445312 70.449219 197.886719 70.738281 198.234375 L 71.484375 197.492188 C 71.394531 197.339844 71.316406 197.15625 71.273438 196.960938 Z M 71.5 195.945312 L 70.753906 195.203125 C 70.464844 195.550781 70.265625 195.992188 70.21875 196.476562 L 71.289062 196.476562 C 71.316406 196.277344 71.394531 196.097656 71.5 195.945312 Z M 71.089844 194.851562 L 71.835938 195.597656 C 71.988281 195.488281 72.171875 195.414062 72.371094 195.367188 L 72.371094 194.308594 C 71.898438 194.367188 71.457031 194.566406 71.089844 194.851562 Z M 72.980469 193.320312 C 73.347656 193.351562 73.695312 193.457031 74.015625 193.59375 L 74.460938 193.035156 L 74.6875 193.171875 L 74.917969 193.304688 L 74.640625 193.972656 C 74.933594 194.1875 75.191406 194.445312 75.40625 194.730469 L 76.074219 194.457031 L 76.214844 194.6875 L 76.351562 194.914062 L 75.785156 195.355469 C 75.921875 195.671875 76.03125 196.019531 76.0625 196.382812 L 76.777344 196.492188 L 76.777344 197.007812 L 76.0625 197.113281 C 76.03125 197.476562 75.921875 197.824219 75.785156 198.144531 L 76.351562 198.582031 L 76.214844 198.8125 L 76.074219 199.039062 L 75.40625 198.71875 C 75.191406 199.007812 74.933594 199.265625 74.640625 199.476562 L 74.917969 200.144531 L 74.6875 200.28125 L 74.460938 200.417969 L 74.015625 199.855469 C 73.695312 199.992188 73.347656 200.101562 72.980469 200.128906 L 72.875 200.84375 L 72.355469 200.84375 L 72.25 200.128906 C 71.882812 200.085938 71.53125 199.992188 71.210938 199.855469 L 70.769531 200.417969 L 70.539062 200.28125 L 70.3125 200.144531 L 70.585938 199.476562 C 70.296875 199.265625 70.035156 199.007812 69.824219 198.71875 L 69.152344 198.992188 L 68.878906 198.539062 L 69.441406 198.097656 C 69.304688 197.78125 69.199219 197.429688 69.167969 197.066406 L 68.449219 196.960938 L 68.449219 196.445312 L 69.167969 196.339844 C 69.199219 195.976562 69.304688 195.625 69.441406 195.308594 L 68.878906 194.867188 L 69.152344 194.414062 L 69.824219 194.6875 C 70.035156 194.398438 70.296875 194.140625 70.585938 193.929688 L 70.3125 193.261719 L 70.539062 193.125 L 70.769531 192.988281 L 71.210938 193.550781 C 71.53125 193.414062 71.882812 193.304688 72.25 193.277344 L 72.355469 192.5625 L 72.875 192.5625 Z M 72.980469 193.320312 " fill-opacity="1" fill-rule="evenodd"/></g><path fill="#060606" d="M 80.238281 182.417969 C 82.648438 183.207031 83.960938 185.769531 83.167969 188.167969 C 82.375 190.5625 79.796875 191.867188 77.386719 191.078125 C 74.976562 190.289062 73.667969 187.726562 74.460938 185.332031 C 75.253906 182.933594 77.828125 181.628906 80.238281 182.417969 Z M 79.324219 185.195312 C 80.195312 185.480469 80.652344 186.390625 80.375 187.257812 C 80.101562 188.121094 79.171875 188.574219 78.300781 188.300781 C 77.433594 188.015625 76.976562 187.105469 77.25 186.242188 C 77.539062 185.375 78.46875 184.90625 79.324219 185.195312 Z M 80.011719 183.132812 C 82.023438 183.785156 83.105469 185.9375 82.449219 187.921875 C 81.792969 189.925781 79.628906 191 77.632812 190.351562 C 75.632812 189.699219 74.535156 187.542969 75.191406 185.558594 C 75.832031 183.554688 77.996094 182.480469 80.011719 183.132812 Z M 81.472656 180.84375 C 82.113281 181.128906 82.679688 181.496094 83.167969 181.949219 L 84.296875 181.191406 L 84.632812 181.554688 L 84.964844 181.917969 L 84.082031 182.949219 C 84.480469 183.496094 84.785156 184.101562 84.996094 184.753906 L 86.355469 184.664062 L 86.566406 185.632812 L 85.285156 186.089844 C 85.347656 186.757812 85.316406 187.421875 85.179688 188.105469 L 86.398438 188.695312 L 86.246094 189.167969 L 86.09375 189.636719 L 84.753906 189.394531 C 84.464844 190.03125 84.097656 190.59375 83.640625 191.078125 L 84.402344 192.199219 L 84.035156 192.53125 L 83.671875 192.867188 L 82.632812 191.988281 C 82.085938 192.382812 81.472656 192.683594 80.820312 192.898438 L 80.910156 194.246094 L 79.933594 194.457031 L 79.476562 193.183594 C 78.804688 193.246094 78.132812 193.214844 77.449219 193.078125 L 76.855469 194.292969 L 76.382812 194.140625 L 75.90625 193.988281 L 76.152344 192.65625 C 75.511719 192.367188 74.949219 192.003906 74.460938 191.546875 L 73.332031 192.304688 L 72.660156 191.578125 L 73.542969 190.546875 C 73.148438 190 72.84375 189.394531 72.628906 188.742188 L 71.273438 188.832031 L 71.164062 188.347656 L 71.058594 187.863281 L 72.339844 187.40625 C 72.277344 186.742188 72.308594 186.074219 72.445312 185.390625 L 71.226562 184.800781 L 71.378906 184.328125 L 71.53125 183.859375 L 72.875 184.101562 C 73.164062 183.464844 73.527344 182.90625 73.988281 182.417969 L 73.222656 181.296875 L 73.589844 180.964844 L 73.957031 180.628906 L 74.992188 181.507812 C 75.542969 181.113281 76.152344 180.8125 76.808594 180.597656 L 76.714844 179.25 L 77.691406 179.039062 L 78.148438 180.3125 C 78.820312 180.25 79.492188 180.28125 80.179688 180.417969 L 80.773438 179.203125 L 81.71875 179.507812 Z M 81.472656 180.84375 " fill-opacity="1" fill-rule="evenodd"/><path fill="#060606" d="M 75.496094 168.726562 C 75.921875 168.664062 76.320312 168.96875 76.382812 169.394531 C 76.441406 169.820312 76.136719 170.210938 75.710938 170.273438 C 75.28125 170.332031 74.886719 170.03125 74.824219 169.605469 C 74.765625 169.167969 75.070312 168.789062 75.496094 168.726562 Z M 76.167969 168.394531 L 76.746094 167.636719 C 76.394531 167.421875 75.96875 167.300781 75.527344 167.316406 L 75.648438 168.273438 C 75.832031 168.273438 76.015625 168.316406 76.167969 168.394531 Z M 76.777344 169.121094 L 77.738281 169 C 77.632812 168.574219 77.417969 168.195312 77.113281 167.921875 L 76.535156 168.679688 C 76.625 168.800781 76.714844 168.953125 76.777344 169.121094 Z M 76.699219 170.0625 L 77.464844 170.636719 C 77.675781 170.289062 77.800781 169.863281 77.785156 169.425781 L 76.824219 169.546875 C 76.824219 169.742188 76.777344 169.910156 76.699219 170.0625 Z M 75.984375 170.667969 L 76.105469 171.621094 C 76.535156 171.515625 76.914062 171.304688 77.1875 171 L 76.425781 170.425781 C 76.304688 170.53125 76.152344 170.621094 75.984375 170.667969 Z M 75.039062 170.589844 L 74.460938 171.351562 C 74.808594 171.5625 75.238281 171.683594 75.679688 171.667969 L 75.558594 170.714844 C 75.359375 170.726562 75.191406 170.667969 75.039062 170.589844 Z M 74.414062 169.878906 L 73.453125 170 C 73.558594 170.425781 73.773438 170.804688 74.078125 171.078125 L 74.65625 170.320312 C 74.566406 170.199219 74.476562 170.046875 74.414062 169.878906 Z M 74.488281 168.9375 L 73.726562 168.363281 C 73.515625 168.710938 73.390625 169.136719 73.40625 169.574219 L 74.367188 169.453125 C 74.367188 169.257812 74.414062 169.089844 74.488281 168.9375 Z M 74 168 L 74.765625 168.574219 C 74.886719 168.453125 75.039062 168.363281 75.222656 168.316406 L 75.101562 167.363281 C 74.65625 167.484375 74.292969 167.695312 74 168 Z M 75.511719 166.40625 C 75.847656 166.390625 76.167969 166.4375 76.472656 166.527344 L 76.808594 165.96875 L 77.019531 166.058594 L 77.234375 166.148438 L 77.066406 166.769531 C 77.355469 166.921875 77.617188 167.121094 77.84375 167.363281 L 78.410156 167.042969 L 78.546875 167.226562 L 78.683594 167.40625 L 78.226562 167.863281 C 78.394531 168.136719 78.515625 168.4375 78.59375 168.757812 L 79.246094 168.757812 L 79.308594 169.210938 L 78.683594 169.378906 C 78.699219 169.710938 78.652344 170.03125 78.5625 170.332031 L 79.125 170.667969 L 79.035156 170.878906 L 78.941406 171.09375 L 78.316406 170.925781 C 78.164062 171.214844 77.96875 171.472656 77.722656 171.699219 L 78.042969 172.257812 L 77.675781 172.53125 L 77.21875 172.078125 C 76.945312 172.246094 76.640625 172.367188 76.320312 172.441406 L 76.320312 173.09375 L 76.089844 173.125 L 75.863281 173.15625 L 75.695312 172.53125 C 75.359375 172.546875 75.039062 172.503906 74.734375 172.410156 L 74.398438 172.972656 L 74.183594 172.882812 L 73.972656 172.789062 L 74.140625 172.167969 C 73.847656 172.015625 73.589844 171.820312 73.363281 171.578125 L 72.796875 171.894531 L 72.660156 171.714844 L 72.523438 171.53125 L 72.980469 171.078125 C 72.8125 170.804688 72.691406 170.5 72.613281 170.183594 L 71.957031 170.183594 L 71.929688 169.953125 L 71.898438 169.726562 L 72.523438 169.5625 C 72.507812 169.226562 72.554688 168.910156 72.644531 168.605469 L 72.082031 168.273438 L 72.171875 168.058594 L 72.261719 167.847656 L 72.890625 168.015625 C 73.042969 167.726562 73.238281 167.46875 73.484375 167.242188 L 73.164062 166.679688 L 73.347656 166.542969 L 73.527344 166.40625 L 73.988281 166.863281 C 74.261719 166.695312 74.566406 166.574219 74.886719 166.496094 L 74.886719 165.84375 L 75.113281 165.816406 L 75.34375 165.785156 Z M 75.511719 166.40625 " fill-opacity="1" fill-rule="evenodd"/><path fill="#060606" d="M 75.632812 174.835938 C 76.472656 174.835938 77.160156 175.519531 77.160156 176.355469 C 77.160156 177.1875 76.472656 177.871094 75.632812 177.871094 C 74.796875 177.871094 74.109375 177.1875 74.109375 176.355469 C 74.109375 175.519531 74.796875 174.835938 75.632812 174.835938 Z M 75.632812 175.808594 C 75.9375 175.808594 76.183594 176.050781 76.183594 176.355469 C 76.183594 176.65625 75.9375 176.898438 75.632812 176.898438 C 75.328125 176.898438 75.085938 176.65625 75.085938 176.355469 C 75.085938 176.050781 75.328125 175.808594 75.632812 175.808594 Z M 75.632812 175.082031 C 76.335938 175.082031 76.898438 175.640625 76.898438 176.339844 C 76.898438 177.035156 76.335938 177.597656 75.632812 177.597656 C 74.933594 177.597656 74.367188 177.035156 74.367188 176.339844 C 74.367188 175.65625 74.933594 175.082031 75.632812 175.082031 Z M 75.863281 174.214844 C 76.089844 174.246094 76.304688 174.308594 76.519531 174.382812 L 76.792969 174.035156 L 77.066406 174.183594 L 76.898438 174.59375 C 77.082031 174.730469 77.25 174.882812 77.371094 175.066406 L 77.785156 174.898438 L 77.859375 175.035156 L 77.9375 175.171875 L 77.585938 175.445312 C 77.675781 175.640625 77.738281 175.867188 77.753906 176.097656 L 78.195312 176.15625 L 78.195312 176.492188 L 77.753906 176.550781 C 77.722656 176.777344 77.660156 176.992188 77.585938 177.203125 L 77.9375 177.476562 L 77.859375 177.613281 L 77.785156 177.75 L 77.371094 177.582031 C 77.234375 177.765625 77.082031 177.929688 76.898438 178.050781 L 77.066406 178.460938 L 76.929688 178.539062 L 76.792969 178.613281 L 76.519531 178.265625 C 76.320312 178.355469 76.089844 178.417969 75.863281 178.429688 L 75.800781 178.871094 L 75.464844 178.871094 L 75.40625 178.429688 C 75.175781 178.402344 74.960938 178.339844 74.75 178.265625 L 74.476562 178.613281 L 74.335938 178.539062 L 74.199219 178.460938 L 74.367188 178.050781 C 74.183594 177.914062 74.015625 177.765625 73.894531 177.582031 L 73.484375 177.75 L 73.40625 177.613281 L 73.332031 177.476562 L 73.683594 177.203125 C 73.589844 177.003906 73.527344 176.777344 73.515625 176.550781 L 73.070312 176.492188 L 73.070312 176.15625 L 73.515625 176.097656 C 73.542969 175.867188 73.605469 175.65625 73.683594 175.445312 L 73.332031 175.171875 L 73.40625 175.035156 L 73.484375 174.898438 L 73.894531 175.066406 C 74.03125 174.882812 74.183594 174.714844 74.367188 174.59375 L 74.199219 174.183594 L 74.335938 174.109375 L 74.476562 174.035156 L 74.75 174.382812 C 74.949219 174.292969 75.175781 174.230469 75.40625 174.214844 L 75.464844 173.777344 L 75.800781 173.777344 Z M 75.863281 174.214844 " fill-opacity="1" fill-rule="evenodd"/><path fill="#060606" d="M 86.1875 167.742188 C 87.023438 167.742188 87.710938 168.421875 87.710938 169.257812 C 87.710938 170.089844 87.023438 170.773438 86.1875 170.773438 C 85.347656 170.773438 84.660156 170.089844 84.660156 169.257812 C 84.660156 168.421875 85.347656 167.742188 86.1875 167.742188 Z M 86.1875 168.710938 C 86.492188 168.710938 86.734375 168.953125 86.734375 169.257812 C 86.734375 169.5625 86.492188 169.804688 86.1875 169.804688 C 85.882812 169.804688 85.636719 169.5625 85.636719 169.257812 C 85.636719 168.953125 85.882812 168.710938 86.1875 168.710938 Z M 86.1875 167.984375 C 86.886719 167.984375 87.453125 168.542969 87.453125 169.242188 C 87.453125 169.941406 86.886719 170.5 86.1875 170.5 C 85.484375 170.5 84.921875 169.941406 84.921875 169.242188 C 84.921875 168.542969 85.484375 167.984375 86.1875 167.984375 Z M 86.414062 167.121094 C 86.644531 167.148438 86.859375 167.210938 87.070312 167.285156 L 87.34375 166.9375 L 87.484375 167.011719 L 87.621094 167.089844 L 87.453125 167.5 C 87.636719 167.636719 87.804688 167.785156 87.925781 167.96875 L 88.335938 167.800781 L 88.414062 167.9375 L 88.488281 168.074219 L 88.136719 168.347656 C 88.230469 168.542969 88.289062 168.773438 88.304688 169 L 88.75 169.058594 L 88.75 169.394531 L 88.304688 169.453125 C 88.277344 169.683594 88.214844 169.894531 88.136719 170.105469 L 88.488281 170.378906 L 88.414062 170.515625 L 88.335938 170.652344 L 87.925781 170.484375 C 87.789062 170.667969 87.636719 170.835938 87.453125 170.957031 L 87.621094 171.363281 L 87.484375 171.441406 L 87.34375 171.515625 L 87.070312 171.167969 C 86.871094 171.257812 86.644531 171.320312 86.414062 171.335938 L 86.355469 171.773438 L 86.019531 171.773438 L 85.957031 171.335938 C 85.730469 171.304688 85.515625 171.242188 85.300781 171.167969 L 85.027344 171.515625 L 84.890625 171.441406 L 84.753906 171.363281 L 84.921875 170.957031 C 84.738281 170.820312 84.570312 170.667969 84.449219 170.484375 L 84.035156 170.652344 L 83.960938 170.515625 L 83.882812 170.378906 L 84.234375 170.105469 C 84.144531 169.910156 84.082031 169.683594 84.066406 169.453125 L 83.625 169.394531 L 83.625 169.058594 L 84.066406 169 C 84.097656 168.773438 84.160156 168.558594 84.234375 168.347656 L 83.882812 168.074219 L 83.960938 167.9375 L 84.035156 167.800781 L 84.449219 167.96875 C 84.585938 167.785156 84.738281 167.621094 84.921875 167.5 L 84.753906 167.089844 L 84.890625 167.011719 L 85.027344 166.9375 L 85.300781 167.285156 C 85.5 167.195312 85.730469 167.132812 85.957031 167.121094 L 86.019531 166.679688 L 86.355469 166.679688 Z M 86.414062 167.121094 " fill-opacity="1" fill-rule="evenodd"/><path fill="#060606" d="M 96.847656 177.019531 C 97.546875 176.929688 98.1875 177.414062 98.28125 178.113281 C 98.371094 178.808594 97.882812 179.445312 97.183594 179.539062 C 96.480469 179.628906 95.839844 179.144531 95.75 178.445312 C 95.65625 177.75 96.144531 177.113281 96.847656 177.019531 Z M 97.929688 176.492188 L 98.875 175.246094 C 98.292969 174.898438 97.609375 174.699219 96.890625 174.714844 L 97.105469 176.261719 C 97.410156 176.292969 97.683594 176.367188 97.929688 176.492188 Z M 98.933594 177.65625 L 100.492188 177.445312 C 100.324219 176.75 99.957031 176.140625 99.46875 175.6875 L 98.523438 176.929688 C 98.691406 177.140625 98.84375 177.386719 98.933594 177.65625 Z M 98.8125 179.1875 L 100.0625 180.128906 C 100.414062 179.554688 100.613281 178.871094 100.597656 178.160156 L 99.042969 178.371094 C 99.011719 178.675781 98.933594 178.945312 98.8125 179.1875 Z M 97.640625 180.191406 L 97.851562 181.738281 C 98.554688 181.570312 99.164062 181.207031 99.621094 180.722656 L 98.371094 179.78125 C 98.15625 179.960938 97.914062 180.097656 97.640625 180.191406 Z M 96.097656 180.070312 L 95.152344 181.3125 C 95.734375 181.660156 96.417969 181.859375 97.136719 181.84375 L 96.921875 180.296875 C 96.632812 180.265625 96.34375 180.191406 96.097656 180.070312 Z M 95.09375 178.902344 L 93.535156 179.113281 C 93.703125 179.8125 94.070312 180.417969 94.558594 180.871094 L 95.503906 179.628906 C 95.335938 179.433594 95.183594 179.175781 95.09375 178.902344 Z M 95.214844 177.371094 L 93.964844 176.429688 C 93.613281 177.003906 93.414062 177.6875 93.429688 178.402344 L 94.984375 178.1875 C 95.015625 177.902344 95.09375 177.613281 95.214844 177.371094 Z M 94.421875 175.851562 L 95.671875 176.792969 C 95.886719 176.613281 96.128906 176.460938 96.402344 176.367188 L 96.191406 174.824219 C 95.488281 174.988281 94.878906 175.351562 94.421875 175.851562 Z M 96.875 173.246094 C 97.425781 173.230469 97.945312 173.304688 98.449219 173.441406 L 98.980469 172.53125 L 99.683594 172.835938 L 99.421875 173.851562 C 99.894531 174.109375 100.308594 174.429688 100.675781 174.808594 L 101.589844 174.292969 L 101.816406 174.59375 L 102.046875 174.898438 L 101.300781 175.65625 C 101.574219 176.097656 101.773438 176.582031 101.910156 177.113281 L 102.976562 177.113281 L 103.023438 177.492188 L 103.066406 177.871094 L 102.046875 178.160156 C 102.0625 178.703125 101.984375 179.21875 101.847656 179.71875 L 102.761719 180.25 L 102.609375 180.597656 L 102.457031 180.949219 L 101.4375 180.691406 C 101.175781 181.160156 100.855469 181.570312 100.476562 181.933594 L 100.992188 182.84375 L 100.382812 183.296875 L 99.621094 182.554688 C 99.179688 182.828125 98.691406 183.027344 98.15625 183.164062 L 98.15625 184.222656 L 97.777344 184.269531 L 97.394531 184.316406 L 97.105469 183.296875 C 96.554688 183.3125 96.039062 183.238281 95.535156 183.101562 L 95 184.011719 L 94.648438 183.859375 L 94.300781 183.707031 L 94.558594 182.691406 C 94.085938 182.433594 93.675781 182.117188 93.308594 181.738281 L 92.394531 182.253906 L 92.164062 181.949219 L 91.9375 181.644531 L 92.683594 180.886719 C 92.410156 180.449219 92.210938 179.960938 92.074219 179.433594 L 91.003906 179.433594 L 90.960938 179.054688 L 90.914062 178.671875 L 91.9375 178.386719 C 91.921875 177.839844 91.996094 177.324219 92.132812 176.824219 L 91.21875 176.292969 L 91.371094 175.945312 L 91.523438 175.59375 L 92.546875 175.851562 C 92.804688 175.382812 93.125 174.972656 93.507812 174.609375 L 92.988281 173.699219 L 93.597656 173.246094 L 94.359375 173.988281 C 94.800781 173.714844 95.289062 173.519531 95.824219 173.382812 L 95.824219 172.320312 L 96.207031 172.273438 L 96.585938 172.230469 Z M 96.875 173.246094 " fill-opacity="1" fill-rule="evenodd"/><path fill="#060606" d="M 82.253906 174.519531 C 82.648438 174.472656 83.015625 174.746094 83.058594 175.140625 C 83.105469 175.535156 82.832031 175.898438 82.433594 175.945312 C 82.039062 175.988281 81.671875 175.71875 81.625 175.324219 C 81.582031 174.929688 81.855469 174.566406 82.253906 174.519531 Z M 82.878906 174.214844 L 83.410156 173.519531 C 83.089844 173.320312 82.695312 173.214844 82.296875 173.230469 L 82.417969 174.09375 C 82.574219 174.109375 82.726562 174.140625 82.878906 174.214844 Z M 83.441406 174.882812 L 84.3125 174.761719 C 84.21875 174.367188 84.003906 174.035156 83.730469 173.761719 L 83.199219 174.457031 C 83.304688 174.578125 83.378906 174.714844 83.441406 174.882812 Z M 83.367188 175.746094 L 84.066406 176.277344 C 84.265625 175.960938 84.371094 175.566406 84.355469 175.171875 L 83.488281 175.292969 C 83.488281 175.445312 83.441406 175.59375 83.367188 175.746094 Z M 82.710938 176.308594 L 82.832031 177.171875 C 83.226562 177.082031 83.5625 176.871094 83.839844 176.597656 L 83.136719 176.066406 C 83 176.171875 82.863281 176.246094 82.710938 176.308594 Z M 81.839844 176.234375 L 81.304688 176.929688 C 81.625 177.128906 82.023438 177.234375 82.417969 177.21875 L 82.296875 176.355469 C 82.128906 176.355469 81.976562 176.308594 81.839844 176.234375 Z M 81.277344 175.582031 L 80.40625 175.703125 C 80.5 176.097656 80.710938 176.429688 80.988281 176.703125 L 81.519531 176.003906 C 81.398438 175.867188 81.320312 175.730469 81.277344 175.582031 Z M 81.335938 174.714844 L 80.636719 174.183594 C 80.4375 174.503906 80.332031 174.898438 80.347656 175.292969 L 81.214844 175.171875 C 81.230469 175.003906 81.261719 174.851562 81.335938 174.714844 Z M 80.878906 173.851562 L 81.582031 174.382812 C 81.703125 174.277344 81.839844 174.199219 81.992188 174.140625 L 81.871094 173.277344 C 81.488281 173.367188 81.152344 173.578125 80.878906 173.851562 Z M 82.265625 172.394531 C 82.574219 172.382812 82.878906 172.425781 83.152344 172.515625 L 83.457031 172 L 83.65625 172.078125 L 83.851562 172.152344 L 83.699219 172.730469 C 83.960938 172.867188 84.203125 173.046875 84.402344 173.261719 L 84.921875 172.972656 L 85.058594 173.140625 L 85.195312 173.304688 L 84.785156 173.730469 C 84.9375 173.972656 85.058594 174.246094 85.117188 174.550781 L 85.714844 174.550781 L 85.746094 174.761719 L 85.773438 174.972656 L 85.195312 175.125 C 85.210938 175.429688 85.164062 175.730469 85.074219 176.003906 L 85.589844 176.308594 L 85.515625 176.503906 L 85.4375 176.703125 L 84.859375 176.550781 C 84.722656 176.808594 84.539062 177.050781 84.324219 177.25 L 84.617188 177.765625 L 84.449219 177.902344 L 84.28125 178.035156 L 83.851562 177.628906 C 83.609375 177.777344 83.335938 177.902344 83.03125 177.960938 L 83.03125 178.550781 L 82.601562 178.613281 L 82.449219 178.035156 C 82.144531 178.050781 81.839844 178.007812 81.566406 177.914062 L 81.261719 178.429688 L 80.863281 178.28125 L 81.015625 177.703125 C 80.757812 177.566406 80.511719 177.386719 80.316406 177.171875 L 79.796875 177.460938 L 79.660156 177.292969 L 79.523438 177.128906 L 79.933594 176.703125 C 79.78125 176.460938 79.660156 176.1875 79.597656 175.882812 L 79.003906 175.882812 L 78.941406 175.460938 L 79.523438 175.308594 C 79.507812 175.003906 79.554688 174.699219 79.644531 174.429688 L 79.125 174.125 L 79.203125 173.925781 L 79.277344 173.730469 L 79.859375 173.882812 C 79.996094 173.625 80.179688 173.382812 80.390625 173.183594 L 80.101562 172.667969 L 80.4375 172.394531 L 80.863281 172.804688 C 81.109375 172.652344 81.382812 172.53125 81.6875 172.472656 L 81.6875 171.878906 L 81.902344 171.851562 L 82.113281 171.820312 Z M 82.265625 172.394531 " fill-opacity="1" fill-rule="evenodd"/><path fill="#060606" d="M 88.09375 186.984375 C 88.320312 186.953125 88.535156 187.121094 88.566406 187.347656 C 88.597656 187.574219 88.429688 187.785156 88.199219 187.816406 C 87.972656 187.847656 87.757812 187.679688 87.726562 187.453125 C 87.695312 187.226562 87.863281 187.015625 88.09375 186.984375 Z M 88.457031 186.816406 L 88.777344 186.40625 C 88.582031 186.285156 88.351562 186.226562 88.125 186.226562 L 88.199219 186.742188 C 88.277344 186.742188 88.367188 186.769531 88.457031 186.816406 Z M 88.792969 187.195312 L 89.3125 187.121094 C 89.25 186.890625 89.128906 186.679688 88.976562 186.527344 L 88.65625 186.9375 C 88.703125 187.027344 88.765625 187.105469 88.792969 187.195312 Z M 88.75 187.710938 L 89.160156 188.03125 C 89.28125 187.832031 89.34375 187.605469 89.34375 187.378906 L 88.824219 187.453125 C 88.808594 187.527344 88.792969 187.621094 88.75 187.710938 Z M 88.351562 188.042969 L 88.429688 188.558594 C 88.65625 188.5 88.871094 188.378906 89.023438 188.226562 L 88.609375 187.910156 C 88.535156 187.96875 88.445312 188.015625 88.351562 188.042969 Z M 87.847656 188 L 87.527344 188.410156 C 87.726562 188.53125 87.957031 188.589844 88.183594 188.589844 L 88.109375 188.074219 C 88.015625 188.074219 87.925781 188.042969 87.847656 188 Z M 87.511719 187.605469 L 86.996094 187.679688 C 87.054688 187.910156 87.179688 188.121094 87.332031 188.273438 L 87.652344 187.863281 C 87.589844 187.785156 87.542969 187.710938 87.511719 187.605469 Z M 87.542969 187.105469 L 87.132812 186.785156 C 87.011719 186.984375 86.949219 187.210938 86.949219 187.4375 L 87.46875 187.363281 C 87.484375 187.273438 87.511719 187.179688 87.542969 187.105469 Z M 87.285156 186.605469 L 87.695312 186.921875 C 87.773438 186.863281 87.847656 186.816406 87.941406 186.785156 L 87.863281 186.269531 C 87.636719 186.316406 87.4375 186.4375 87.285156 186.605469 Z M 88.109375 185.726562 C 88.289062 185.726562 88.457031 185.738281 88.625 185.785156 L 88.808594 185.480469 L 88.929688 185.527344 L 89.054688 185.574219 L 88.960938 185.90625 C 89.113281 185.996094 89.25 186.105469 89.375 186.226562 L 89.679688 186.058594 L 89.753906 186.164062 L 89.832031 186.269531 L 89.585938 186.527344 C 89.679688 186.679688 89.738281 186.832031 89.785156 187.015625 L 90.136719 187.015625 L 90.167969 187.257812 L 89.832031 187.347656 C 89.832031 187.527344 89.816406 187.695312 89.769531 187.863281 L 90.074219 188.042969 L 90.03125 188.167969 L 89.984375 188.289062 L 89.648438 188.195312 C 89.558594 188.347656 89.449219 188.484375 89.328125 188.605469 L 89.496094 188.910156 L 89.390625 188.984375 L 89.28125 189.0625 L 89.023438 188.816406 C 88.871094 188.910156 88.71875 188.96875 88.535156 189.015625 L 88.535156 189.363281 L 88.414062 189.378906 L 88.289062 189.394531 L 88.199219 189.0625 C 88.015625 189.0625 87.847656 189.046875 87.679688 189 L 87.496094 189.304688 L 87.253906 189.210938 L 87.34375 188.878906 C 87.191406 188.789062 87.054688 188.683594 86.933594 188.558594 L 86.628906 188.726562 L 86.550781 188.621094 L 86.476562 188.515625 L 86.71875 188.257812 C 86.628906 188.105469 86.566406 187.953125 86.523438 187.773438 L 86.171875 187.773438 L 86.15625 187.652344 L 86.140625 187.527344 L 86.476562 187.4375 C 86.476562 187.257812 86.492188 187.089844 86.539062 186.921875 L 86.230469 186.742188 L 86.324219 186.5 L 86.660156 186.589844 C 86.75 186.4375 86.859375 186.300781 86.980469 186.179688 L 86.8125 185.875 L 87.023438 185.726562 L 87.285156 185.96875 C 87.4375 185.875 87.589844 185.816406 87.773438 185.769531 L 87.773438 185.421875 L 88.015625 185.390625 Z M 88.109375 185.726562 " fill-opacity="1" fill-rule="evenodd"/><path fill="#060606" d="M 88.597656 178.839844 C 88.824219 178.808594 89.039062 178.976562 89.070312 179.203125 C 89.097656 179.433594 88.929688 179.644531 88.703125 179.675781 C 88.472656 179.703125 88.261719 179.539062 88.230469 179.3125 C 88.199219 179.082031 88.367188 178.871094 88.597656 178.839844 Z M 88.960938 178.675781 L 89.28125 178.265625 C 89.085938 178.144531 88.855469 178.082031 88.625 178.082031 L 88.703125 178.597656 C 88.792969 178.597656 88.886719 178.628906 88.960938 178.675781 Z M 89.296875 179.054688 L 89.816406 178.976562 C 89.753906 178.75 89.632812 178.539062 89.480469 178.386719 L 89.160156 178.796875 C 89.222656 178.886719 89.265625 178.960938 89.296875 179.054688 Z M 89.25 179.570312 L 89.664062 179.886719 C 89.785156 179.691406 89.847656 179.460938 89.847656 179.234375 L 89.328125 179.3125 C 89.328125 179.386719 89.296875 179.476562 89.25 179.570312 Z M 88.871094 179.902344 L 88.945312 180.417969 C 89.175781 180.355469 89.390625 180.234375 89.542969 180.085938 L 89.128906 179.765625 C 89.039062 179.828125 88.960938 179.871094 88.871094 179.902344 Z M 88.351562 179.855469 L 88.03125 180.265625 C 88.230469 180.386719 88.457031 180.449219 88.6875 180.449219 L 88.609375 179.933594 C 88.535156 179.917969 88.445312 179.902344 88.351562 179.855469 Z M 88.015625 179.460938 L 87.496094 179.539062 C 87.558594 179.765625 87.679688 179.976562 87.832031 180.128906 L 88.152344 179.71875 C 88.09375 179.644531 88.046875 179.554688 88.015625 179.460938 Z M 88.0625 178.960938 L 87.652344 178.644531 C 87.527344 178.839844 87.46875 179.066406 87.46875 179.296875 L 87.984375 179.21875 C 87.984375 179.128906 88.015625 179.039062 88.0625 178.960938 Z M 87.789062 178.445312 L 88.199219 178.765625 C 88.277344 178.703125 88.351562 178.660156 88.445312 178.628906 L 88.367188 178.113281 C 88.152344 178.171875 87.957031 178.292969 87.789062 178.445312 Z M 88.609375 177.582031 C 88.792969 177.582031 88.960938 177.597656 89.128906 177.644531 L 89.3125 177.339844 L 89.433594 177.386719 L 89.558594 177.429688 L 89.464844 177.765625 C 89.617188 177.855469 89.753906 177.960938 89.878906 178.082031 L 90.183594 177.914062 L 90.257812 178.023438 L 90.335938 178.128906 L 90.089844 178.386719 C 90.183594 178.539062 90.242188 178.6875 90.289062 178.871094 L 90.640625 178.871094 L 90.671875 179.113281 L 90.335938 179.203125 C 90.335938 179.386719 90.320312 179.554688 90.273438 179.71875 L 90.578125 179.902344 L 90.53125 180.023438 L 90.488281 180.144531 L 90.152344 180.054688 C 90.058594 180.207031 89.953125 180.34375 89.832031 180.464844 L 90 180.765625 L 89.890625 180.84375 L 89.785156 180.917969 L 89.527344 180.675781 C 89.375 180.765625 89.222656 180.828125 89.039062 180.871094 L 89.039062 181.222656 L 88.917969 181.238281 L 88.792969 181.25 L 88.703125 180.917969 C 88.519531 180.917969 88.351562 180.902344 88.183594 180.855469 L 88 181.160156 L 87.878906 181.113281 L 87.757812 181.070312 L 87.847656 180.734375 C 87.695312 180.644531 87.558594 180.539062 87.4375 180.417969 L 87.132812 180.585938 L 87.054688 180.476562 L 86.980469 180.371094 L 87.222656 180.113281 C 87.132812 179.960938 87.070312 179.8125 87.023438 179.628906 L 86.675781 179.628906 L 86.644531 179.386719 L 86.980469 179.296875 C 86.980469 179.113281 86.996094 178.945312 87.039062 178.78125 L 86.734375 178.597656 L 86.828125 178.355469 L 87.164062 178.445312 C 87.253906 178.292969 87.359375 178.160156 87.484375 178.035156 L 87.316406 177.734375 L 87.421875 177.65625 L 87.527344 177.582031 L 87.789062 177.824219 C 87.941406 177.734375 88.09375 177.671875 88.277344 177.628906 L 88.277344 177.277344 L 88.398438 177.261719 L 88.519531 177.25 Z M 88.609375 177.582031 " fill-opacity="1" fill-rule="evenodd"/><path fill="#060606" d="M 104.898438 181.386719 C 105.125 181.359375 105.339844 181.523438 105.371094 181.753906 C 105.402344 181.980469 105.234375 182.191406 105.003906 182.222656 C 104.777344 182.253906 104.5625 182.085938 104.53125 181.859375 C 104.5 181.644531 104.667969 181.433594 104.898438 181.386719 Z M 105.265625 181.222656 L 105.585938 180.8125 C 105.386719 180.691406 105.15625 180.628906 104.929688 180.628906 L 105.003906 181.144531 C 105.082031 181.144531 105.171875 181.175781 105.265625 181.222656 Z M 105.585938 181.617188 L 106.101562 181.539062 C 106.042969 181.3125 105.917969 181.101562 105.765625 180.949219 L 105.445312 181.359375 C 105.507812 181.433594 105.554688 181.523438 105.585938 181.617188 Z M 105.554688 182.117188 L 105.964844 182.433594 C 106.085938 182.238281 106.148438 182.011719 106.148438 181.78125 L 105.628906 181.859375 C 105.613281 181.949219 105.597656 182.039062 105.554688 182.117188 Z M 105.15625 182.449219 L 105.234375 182.964844 C 105.460938 182.90625 105.675781 182.78125 105.828125 182.632812 L 105.417969 182.3125 C 105.339844 182.375 105.25 182.417969 105.15625 182.449219 Z M 104.640625 182.402344 L 104.320312 182.8125 C 104.515625 182.933594 104.746094 182.996094 104.972656 182.996094 L 104.898438 182.480469 C 104.820312 182.480469 104.730469 182.449219 104.640625 182.402344 Z M 104.320312 182.023438 L 103.800781 182.101562 C 103.859375 182.328125 103.984375 182.539062 104.136719 182.691406 L 104.457031 182.28125 C 104.394531 182.191406 104.347656 182.117188 104.320312 182.023438 Z M 104.347656 181.507812 L 103.9375 181.191406 C 103.816406 181.386719 103.753906 181.617188 103.753906 181.84375 L 104.273438 181.765625 C 104.289062 181.691406 104.304688 181.601562 104.347656 181.507812 Z M 104.089844 181.007812 L 104.5 181.328125 C 104.578125 181.265625 104.652344 181.222656 104.746094 181.191406 L 104.667969 180.675781 C 104.441406 180.722656 104.242188 180.84375 104.089844 181.007812 Z M 104.898438 180.144531 C 105.082031 180.144531 105.25 180.160156 105.417969 180.207031 L 105.597656 179.902344 L 105.722656 179.949219 L 105.84375 179.992188 L 105.753906 180.328125 C 105.90625 180.417969 106.042969 180.523438 106.164062 180.644531 L 106.46875 180.476562 L 106.546875 180.585938 L 106.621094 180.691406 L 106.378906 180.949219 C 106.46875 181.101562 106.53125 181.25 106.574219 181.433594 L 106.925781 181.433594 L 106.957031 181.675781 L 106.621094 181.765625 C 106.621094 181.949219 106.605469 182.117188 106.558594 182.28125 L 106.867188 182.464844 L 106.773438 182.707031 L 106.4375 182.617188 C 106.347656 182.769531 106.238281 182.90625 106.117188 183.027344 L 106.285156 183.328125 L 106.179688 183.40625 L 106.074219 183.480469 L 105.8125 183.238281 C 105.660156 183.328125 105.507812 183.390625 105.324219 183.433594 L 105.324219 183.785156 L 105.203125 183.800781 L 105.082031 183.8125 L 104.988281 183.480469 C 104.804688 183.480469 104.640625 183.464844 104.472656 183.421875 L 104.289062 183.722656 L 104.167969 183.679688 L 104.042969 183.632812 L 104.136719 183.296875 C 103.984375 183.207031 103.847656 183.101562 103.722656 182.980469 L 103.417969 183.148438 L 103.34375 183.039062 L 103.265625 182.933594 L 103.511719 182.675781 C 103.417969 182.523438 103.359375 182.375 103.3125 182.191406 L 102.960938 182.191406 L 102.929688 181.949219 L 103.265625 181.859375 C 103.265625 181.675781 103.28125 181.507812 103.328125 181.34375 L 103.023438 181.160156 L 103.066406 181.039062 L 103.113281 180.917969 L 103.449219 181.007812 C 103.539062 180.855469 103.648438 180.722656 103.769531 180.597656 L 103.601562 180.296875 L 103.707031 180.21875 L 103.816406 180.144531 L 104.074219 180.386719 C 104.226562 180.296875 104.378906 180.234375 104.5625 180.191406 L 104.5625 179.839844 L 104.683594 179.828125 L 104.804688 179.8125 Z M 104.898438 180.144531 " fill-opacity="1" fill-rule="evenodd"/><path fill="#060606" d="M 91.722656 165.890625 C 91.949219 165.859375 92.164062 166.027344 92.195312 166.253906 C 92.226562 166.484375 92.058594 166.695312 91.828125 166.726562 C 91.601562 166.753906 91.386719 166.589844 91.355469 166.359375 C 91.324219 166.132812 91.476562 165.921875 91.722656 165.890625 Z M 92.089844 165.722656 L 92.410156 165.316406 C 92.210938 165.195312 91.980469 165.132812 91.753906 165.132812 L 91.828125 165.648438 C 91.90625 165.648438 91.996094 165.679688 92.089844 165.722656 Z M 92.410156 166.101562 L 92.925781 166.027344 C 92.867188 165.800781 92.742188 165.585938 92.589844 165.4375 L 92.269531 165.84375 C 92.332031 165.9375 92.378906 166.011719 92.410156 166.101562 Z M 92.378906 166.617188 L 92.789062 166.9375 C 92.910156 166.738281 92.972656 166.511719 92.972656 166.285156 L 92.453125 166.359375 C 92.4375 166.4375 92.421875 166.527344 92.378906 166.617188 Z M 91.980469 166.953125 L 92.058594 167.46875 C 92.285156 167.40625 92.5 167.285156 92.652344 167.132812 L 92.242188 166.816406 C 92.164062 166.875 92.074219 166.921875 91.980469 166.953125 Z M 91.464844 166.90625 L 91.144531 167.316406 C 91.339844 167.4375 91.570312 167.5 91.796875 167.5 L 91.722656 166.984375 C 91.644531 166.984375 91.554688 166.953125 91.464844 166.90625 Z M 91.144531 166.511719 L 90.625 166.589844 C 90.683594 166.816406 90.808594 167.027344 90.960938 167.179688 L 91.28125 166.769531 C 91.21875 166.695312 91.171875 166.617188 91.144531 166.511719 Z M 91.171875 166.011719 L 90.761719 165.695312 C 90.640625 165.890625 90.578125 166.117188 90.578125 166.347656 L 91.097656 166.269531 C 91.113281 166.179688 91.128906 166.089844 91.171875 166.011719 Z M 90.914062 165.511719 L 91.324219 165.832031 C 91.402344 165.769531 91.476562 165.722656 91.570312 165.695312 L 91.492188 165.179688 C 91.265625 165.222656 91.066406 165.34375 90.914062 165.511719 Z M 91.722656 164.632812 C 91.90625 164.632812 92.074219 164.648438 92.242188 164.691406 L 92.421875 164.390625 L 92.546875 164.433594 L 92.667969 164.480469 L 92.578125 164.816406 C 92.730469 164.90625 92.867188 165.011719 92.988281 165.132812 L 93.292969 164.964844 L 93.371094 165.070312 L 93.445312 165.179688 L 93.203125 165.4375 C 93.292969 165.585938 93.355469 165.738281 93.398438 165.921875 L 93.75 165.921875 L 93.78125 166.164062 L 93.445312 166.253906 C 93.445312 166.4375 93.429688 166.605469 93.382812 166.769531 L 93.6875 166.953125 L 93.644531 167.074219 L 93.597656 167.195312 L 93.261719 167.105469 C 93.171875 167.253906 93.0625 167.390625 92.941406 167.511719 L 93.109375 167.816406 L 93.003906 167.894531 L 92.894531 167.96875 L 92.636719 167.726562 C 92.484375 167.816406 92.332031 167.878906 92.148438 167.921875 L 92.148438 168.273438 L 92.027344 168.285156 L 91.90625 168.300781 L 91.8125 167.96875 C 91.628906 167.96875 91.464844 167.953125 91.296875 167.90625 L 91.113281 168.210938 L 90.988281 168.164062 L 90.867188 168.121094 L 90.960938 167.785156 C 90.808594 167.695312 90.671875 167.589844 90.546875 167.46875 L 90.242188 167.636719 L 90.167969 167.527344 L 90.089844 167.421875 L 90.335938 167.164062 C 90.242188 167.011719 90.183594 166.863281 90.136719 166.679688 L 89.785156 166.679688 L 89.753906 166.4375 L 90.089844 166.347656 C 90.089844 166.164062 90.105469 165.996094 90.152344 165.832031 L 89.847656 165.648438 L 89.890625 165.527344 L 89.9375 165.40625 L 90.273438 165.496094 C 90.363281 165.34375 90.472656 165.207031 90.59375 165.085938 L 90.425781 164.785156 L 90.53125 164.707031 L 90.640625 164.632812 L 90.898438 164.875 C 91.050781 164.785156 91.203125 164.722656 91.386719 164.679688 L 91.386719 164.328125 L 91.507812 164.3125 L 91.628906 164.300781 Z M 91.722656 164.632812 " fill-opacity="1" fill-rule="evenodd"/><path fill="#060606" d="M 77.859375 163.890625 C 78.300781 163.890625 78.667969 164.253906 78.667969 164.691406 C 78.667969 165.132812 78.300781 165.496094 77.859375 165.496094 C 77.417969 165.496094 77.050781 165.132812 77.050781 164.691406 C 77.050781 164.253906 77.417969 163.890625 77.859375 163.890625 Z M 77.859375 164.40625 C 78.027344 164.40625 78.148438 164.542969 78.148438 164.691406 C 78.148438 164.859375 78.011719 164.980469 77.859375 164.980469 C 77.691406 164.980469 77.570312 164.84375 77.570312 164.691406 C 77.570312 164.542969 77.707031 164.40625 77.859375 164.40625 Z M 77.859375 164.027344 C 78.226562 164.027344 78.53125 164.328125 78.53125 164.691406 C 78.53125 165.058594 78.226562 165.359375 77.859375 165.359375 C 77.496094 165.359375 77.1875 165.058594 77.1875 164.691406 C 77.1875 164.328125 77.496094 164.027344 77.859375 164.027344 Z M 77.980469 163.570312 C 78.105469 163.585938 78.226562 163.617188 78.332031 163.660156 L 78.484375 163.480469 L 78.5625 163.527344 L 78.636719 163.570312 L 78.546875 163.796875 C 78.636719 163.875 78.730469 163.949219 78.804688 164.054688 L 79.035156 163.964844 L 79.082031 164.042969 L 79.125 164.117188 L 78.941406 164.269531 C 78.988281 164.375 79.019531 164.496094 79.035156 164.617188 L 79.277344 164.648438 L 79.277344 164.828125 L 79.035156 164.859375 C 79.019531 164.980469 78.988281 165.101562 78.941406 165.207031 L 79.125 165.359375 L 79.082031 165.4375 L 79.035156 165.511719 L 78.804688 165.421875 C 78.730469 165.511719 78.652344 165.601562 78.546875 165.679688 L 78.636719 165.90625 L 78.5625 165.953125 L 78.484375 165.996094 L 78.332031 165.816406 C 78.226562 165.859375 78.105469 165.890625 77.980469 165.90625 L 77.953125 166.148438 L 77.769531 166.148438 L 77.738281 165.90625 C 77.617188 165.890625 77.496094 165.859375 77.386719 165.816406 L 77.234375 165.996094 L 77.160156 165.953125 L 77.082031 165.90625 L 77.175781 165.679688 C 77.082031 165.601562 76.992188 165.527344 76.914062 165.421875 L 76.6875 165.511719 L 76.640625 165.4375 L 76.59375 165.359375 L 76.777344 165.207031 C 76.730469 165.101562 76.699219 164.980469 76.6875 164.859375 L 76.441406 164.828125 L 76.441406 164.648438 L 76.6875 164.617188 C 76.699219 164.496094 76.730469 164.375 76.777344 164.269531 L 76.59375 164.117188 L 76.640625 164.042969 L 76.6875 163.964844 L 76.914062 164.054688 C 76.992188 163.964844 77.066406 163.875 77.175781 163.796875 L 77.082031 163.570312 L 77.160156 163.527344 L 77.234375 163.480469 L 77.386719 163.660156 C 77.496094 163.617188 77.617188 163.585938 77.738281 163.570312 L 77.769531 163.328125 L 77.953125 163.328125 Z M 77.980469 163.570312 " fill-opacity="1" fill-rule="evenodd"/><path fill="#060606" d="M 71.746094 154.167969 C 72.171875 154.109375 72.570312 154.414062 72.628906 154.835938 C 72.691406 155.261719 72.386719 155.65625 71.957031 155.714844 C 71.53125 155.777344 71.136719 155.472656 71.074219 155.050781 C 71.011719 154.625 71.316406 154.230469 71.746094 154.167969 Z M 72.414062 153.851562 L 72.996094 153.09375 C 72.644531 152.878906 72.21875 152.757812 71.777344 152.773438 L 71.898438 153.730469 C 72.097656 153.730469 72.261719 153.777344 72.414062 153.851562 Z M 73.027344 154.5625 L 73.988281 154.441406 C 73.878906 154.019531 73.667969 153.640625 73.363281 153.367188 L 72.78125 154.125 C 72.890625 154.246094 72.980469 154.398438 73.027344 154.5625 Z M 72.949219 155.503906 L 73.710938 156.082031 C 73.925781 155.730469 74.046875 155.308594 74.03125 154.867188 L 73.070312 154.988281 C 73.085938 155.1875 73.042969 155.351562 72.949219 155.503906 Z M 72.234375 156.125 L 72.355469 157.082031 C 72.78125 156.976562 73.164062 156.761719 73.4375 156.460938 L 72.675781 155.882812 C 72.554688 155.972656 72.402344 156.066406 72.234375 156.125 Z M 71.289062 156.050781 L 70.707031 156.808594 C 71.058594 157.019531 71.484375 157.140625 71.929688 157.125 L 71.804688 156.171875 C 71.609375 156.171875 71.441406 156.125 71.289062 156.050781 Z M 70.675781 155.320312 L 69.714844 155.445312 C 69.824219 155.867188 70.035156 156.246094 70.34375 156.519531 L 70.921875 155.761719 C 70.816406 155.65625 70.722656 155.503906 70.675781 155.320312 Z M 70.753906 154.382812 L 69.992188 153.804688 C 69.777344 154.15625 69.65625 154.578125 69.671875 155.019531 L 70.632812 154.898438 C 70.617188 154.714844 70.664062 154.535156 70.753906 154.382812 Z M 70.25 153.457031 L 71.011719 154.035156 C 71.136719 153.910156 71.289062 153.820312 71.46875 153.777344 L 71.347656 152.820312 C 70.90625 152.925781 70.539062 153.152344 70.25 153.457031 Z M 71.761719 151.851562 C 72.097656 151.835938 72.414062 151.878906 72.722656 151.972656 L 73.054688 151.410156 L 73.269531 151.5 L 73.484375 151.59375 L 73.316406 152.214844 C 73.605469 152.367188 73.863281 152.5625 74.09375 152.804688 L 74.65625 152.488281 L 74.796875 152.667969 L 74.933594 152.851562 L 74.476562 153.304688 C 74.640625 153.578125 74.765625 153.882812 74.839844 154.199219 L 75.496094 154.199219 L 75.527344 154.425781 L 75.558594 154.65625 L 74.933594 154.820312 C 74.949219 155.15625 74.902344 155.472656 74.808594 155.777344 L 75.375 156.109375 L 75.28125 156.324219 L 75.191406 156.535156 L 74.566406 156.367188 C 74.414062 156.65625 74.214844 156.914062 73.972656 157.140625 L 74.292969 157.703125 L 73.925781 157.976562 L 73.46875 157.519531 C 73.195312 157.6875 72.890625 157.808594 72.570312 157.886719 L 72.570312 158.535156 L 72.109375 158.597656 L 71.941406 157.976562 C 71.609375 157.992188 71.289062 157.945312 70.984375 157.855469 L 70.648438 158.414062 L 70.21875 158.234375 L 70.386719 157.613281 C 70.097656 157.460938 69.839844 157.261719 69.609375 157.019531 L 69.046875 157.339844 L 68.910156 157.15625 L 68.769531 156.976562 L 69.230469 156.519531 C 69.0625 156.246094 68.9375 155.945312 68.863281 155.625 L 68.207031 155.625 L 68.175781 155.398438 L 68.117188 155.199219 L 68.742188 155.035156 C 68.726562 154.699219 68.769531 154.382812 68.863281 154.078125 L 68.296875 153.746094 L 68.390625 153.53125 L 68.480469 153.320312 L 69.105469 153.488281 C 69.257812 153.199219 69.457031 152.941406 69.703125 152.714844 L 69.382812 152.152344 L 69.5625 152.015625 L 69.761719 151.863281 L 70.21875 152.320312 C 70.496094 152.152344 70.800781 152.03125 71.121094 151.957031 L 71.121094 151.304688 L 71.347656 151.273438 L 71.578125 151.242188 Z M 71.761719 151.851562 " fill-opacity="1" fill-rule="evenodd"/><path fill="#060606" d="M 59.878906 174.429688 C 60.414062 174.429688 60.839844 174.851562 60.839844 175.382812 C 60.839844 175.914062 60.414062 176.339844 59.878906 176.339844 C 59.347656 176.339844 58.917969 175.914062 58.917969 175.382812 C 58.917969 174.851562 59.363281 174.429688 59.878906 174.429688 Z M 59.878906 175.035156 C 60.078125 175.035156 60.230469 175.1875 60.230469 175.382812 C 60.230469 175.582031 60.078125 175.730469 59.878906 175.730469 C 59.683594 175.730469 59.53125 175.582031 59.53125 175.382812 C 59.546875 175.1875 59.699219 175.035156 59.878906 175.035156 Z M 59.878906 174.578125 C 60.324219 174.578125 60.6875 174.945312 60.6875 175.382812 C 60.6875 175.824219 60.324219 176.1875 59.878906 176.1875 C 59.4375 176.1875 59.085938 175.824219 59.085938 175.382812 C 59.085938 174.945312 59.4375 174.578125 59.878906 174.578125 Z M 60.03125 174.035156 C 60.1875 174.050781 60.324219 174.078125 60.445312 174.140625 L 60.628906 173.914062 L 60.71875 173.957031 L 60.8125 174.003906 L 60.703125 174.261719 C 60.824219 174.351562 60.917969 174.441406 61.007812 174.566406 L 61.269531 174.457031 L 61.3125 174.550781 L 61.359375 174.640625 L 61.132812 174.824219 C 61.191406 174.945312 61.222656 175.09375 61.238281 175.230469 L 61.527344 175.277344 L 61.527344 175.488281 L 61.238281 175.535156 C 61.222656 175.6875 61.191406 175.824219 61.132812 175.945312 L 61.359375 176.125 L 61.3125 176.21875 L 61.269531 176.308594 L 61.007812 176.203125 C 60.917969 176.324219 60.824219 176.414062 60.703125 176.503906 L 60.8125 176.761719 L 60.71875 176.808594 L 60.628906 176.855469 L 60.445312 176.625 C 60.324219 176.6875 60.171875 176.71875 60.03125 176.734375 L 59.988281 177.019531 L 59.773438 177.019531 L 59.726562 176.734375 C 59.574219 176.71875 59.4375 176.6875 59.316406 176.625 L 59.132812 176.855469 L 59.042969 176.808594 L 58.949219 176.761719 L 59.058594 176.503906 C 58.933594 176.414062 58.84375 176.324219 58.753906 176.203125 L 58.492188 176.308594 L 58.445312 176.21875 L 58.402344 176.125 L 58.628906 175.945312 C 58.570312 175.824219 58.539062 175.671875 58.523438 175.535156 L 58.234375 175.488281 L 58.234375 175.277344 L 58.523438 175.230469 C 58.539062 175.082031 58.570312 174.945312 58.628906 174.824219 L 58.402344 174.640625 L 58.445312 174.550781 L 58.492188 174.457031 L 58.753906 174.566406 C 58.84375 174.441406 58.933594 174.351562 59.058594 174.261719 L 58.949219 174.003906 L 59.042969 173.957031 L 59.132812 173.914062 L 59.316406 174.140625 C 59.4375 174.078125 59.589844 174.050781 59.726562 174.035156 L 59.773438 173.746094 L 59.988281 173.746094 Z M 60.03125 174.035156 " fill-opacity="1" fill-rule="evenodd"/><path fill="#060606" d="M 71.394531 172.503906 C 71.929688 172.503906 72.355469 172.925781 72.355469 173.457031 C 72.355469 173.988281 71.929688 174.414062 71.394531 174.414062 C 70.859375 174.414062 70.433594 173.988281 70.433594 173.457031 C 70.433594 172.925781 70.859375 172.503906 71.394531 172.503906 Z M 71.394531 173.125 C 71.59375 173.125 71.746094 173.277344 71.746094 173.472656 C 71.746094 173.667969 71.59375 173.820312 71.394531 173.820312 C 71.195312 173.820312 71.042969 173.667969 71.042969 173.472656 C 71.058594 173.277344 71.210938 173.125 71.394531 173.125 Z M 71.394531 172.652344 C 71.835938 172.652344 72.203125 173.019531 72.203125 173.457031 C 72.203125 173.898438 71.835938 174.261719 71.394531 174.261719 C 70.953125 174.261719 70.585938 173.898438 70.585938 173.457031 C 70.601562 173.019531 70.953125 172.652344 71.394531 172.652344 Z M 71.546875 172.109375 C 71.699219 172.125 71.835938 172.152344 71.957031 172.214844 L 72.140625 171.988281 L 72.234375 172.03125 L 72.324219 172.078125 L 72.21875 172.335938 C 72.339844 172.425781 72.429688 172.515625 72.523438 172.640625 L 72.78125 172.53125 L 72.828125 172.625 L 72.875 172.714844 L 72.644531 172.898438 C 72.707031 173.019531 72.734375 173.167969 72.75 173.304688 L 73.042969 173.351562 L 73.042969 173.5625 L 72.75 173.609375 C 72.734375 173.761719 72.707031 173.898438 72.644531 174.019531 L 72.875 174.199219 L 72.828125 174.292969 L 72.78125 174.382812 L 72.523438 174.277344 C 72.429688 174.398438 72.339844 174.488281 72.21875 174.578125 L 72.324219 174.835938 L 72.234375 174.882812 L 72.140625 174.929688 L 71.957031 174.699219 C 71.835938 174.761719 71.699219 174.792969 71.546875 174.808594 L 71.5 175.09375 L 71.289062 175.09375 L 71.242188 174.808594 C 71.089844 174.792969 70.953125 174.761719 70.828125 174.699219 L 70.648438 174.929688 L 70.554688 174.882812 L 70.464844 174.835938 L 70.570312 174.578125 C 70.449219 174.488281 70.355469 174.398438 70.265625 174.277344 L 70.007812 174.382812 L 69.960938 174.292969 L 69.914062 174.199219 L 70.144531 174.019531 C 70.082031 173.898438 70.050781 173.761719 70.035156 173.609375 L 69.746094 173.5625 L 69.746094 173.351562 L 70.035156 173.304688 C 70.050781 173.15625 70.082031 173.019531 70.144531 172.898438 L 69.914062 172.714844 L 69.960938 172.625 L 70.007812 172.53125 L 70.265625 172.640625 C 70.355469 172.515625 70.449219 172.425781 70.570312 172.335938 L 70.464844 172.078125 L 70.554688 172.03125 L 70.648438 171.988281 L 70.828125 172.214844 C 70.953125 172.152344 71.105469 172.125 71.242188 172.109375 L 71.289062 171.820312 L 71.5 171.820312 Z M 71.546875 172.109375 " fill-opacity="1" fill-rule="evenodd"/><path fill="#060606" d="M 84.769531 178.6875 C 85.300781 178.6875 85.730469 179.113281 85.730469 179.644531 C 85.730469 180.175781 85.300781 180.597656 84.769531 180.597656 C 84.234375 180.597656 83.808594 180.175781 83.808594 179.644531 C 83.808594 179.128906 84.234375 178.6875 84.769531 178.6875 Z M 84.769531 179.3125 C 84.964844 179.3125 85.117188 179.460938 85.117188 179.660156 C 85.117188 179.855469 84.964844 180.007812 84.769531 180.007812 C 84.570312 180.007812 84.417969 179.855469 84.417969 179.660156 C 84.417969 179.460938 84.570312 179.3125 84.769531 179.3125 Z M 84.769531 178.855469 C 85.210938 178.855469 85.578125 179.21875 85.578125 179.660156 C 85.578125 180.097656 85.210938 180.464844 84.769531 180.464844 C 84.324219 180.464844 83.960938 180.097656 83.960938 179.660156 C 83.960938 179.203125 84.324219 178.855469 84.769531 178.855469 Z M 84.90625 178.292969 C 85.058594 178.308594 85.195312 178.339844 85.316406 178.402344 L 85.5 178.171875 L 85.589844 178.21875 L 85.683594 178.265625 L 85.578125 178.523438 C 85.699219 178.613281 85.789062 178.703125 85.882812 178.824219 L 86.140625 178.71875 L 86.1875 178.808594 L 86.230469 178.902344 L 86.003906 179.082031 C 86.066406 179.203125 86.09375 179.355469 86.109375 179.492188 L 86.398438 179.539062 L 86.398438 179.75 L 86.109375 179.796875 C 86.09375 179.949219 86.066406 180.085938 86.003906 180.207031 L 86.230469 180.386719 L 86.1875 180.476562 L 86.140625 180.570312 L 85.882812 180.464844 C 85.789062 180.585938 85.699219 180.675781 85.578125 180.765625 L 85.683594 181.023438 L 85.589844 181.070312 L 85.5 181.113281 L 85.316406 180.886719 C 85.195312 180.949219 85.042969 180.980469 84.90625 180.992188 L 84.859375 181.28125 L 84.644531 181.28125 L 84.601562 180.992188 C 84.449219 180.980469 84.3125 180.949219 84.1875 180.886719 L 84.003906 181.113281 L 83.914062 181.070312 L 83.824219 181.023438 L 83.929688 180.765625 C 83.808594 180.675781 83.714844 180.585938 83.625 180.464844 L 83.367188 180.570312 L 83.320312 180.476562 L 83.273438 180.386719 L 83.503906 180.207031 C 83.441406 180.085938 83.410156 179.933594 83.394531 179.796875 L 83.105469 179.75 L 83.105469 179.539062 L 83.394531 179.492188 C 83.410156 179.339844 83.441406 179.203125 83.503906 179.082031 L 83.273438 178.902344 L 83.320312 178.808594 L 83.367188 178.71875 L 83.625 178.824219 C 83.714844 178.703125 83.808594 178.613281 83.929688 178.523438 L 83.824219 178.265625 L 84.003906 178.171875 L 84.1875 178.402344 C 84.3125 178.339844 84.449219 178.308594 84.601562 178.292969 L 84.644531 178.007812 L 84.859375 178.007812 Z M 84.90625 178.292969 " fill-opacity="1" fill-rule="evenodd"/><path fill="#060606" d="M 71.378906 190.09375 C 71.804688 190.09375 72.140625 190.425781 72.140625 190.851562 C 72.140625 191.273438 71.804688 191.609375 71.378906 191.609375 C 70.953125 191.609375 70.617188 191.273438 70.617188 190.851562 C 70.617188 190.425781 70.96875 190.09375 71.378906 190.09375 Z M 71.378906 190.578125 C 71.53125 190.578125 71.652344 190.699219 71.652344 190.851562 C 71.652344 191 71.53125 191.121094 71.378906 191.121094 C 71.226562 191.121094 71.105469 191 71.105469 190.851562 C 71.105469 190.699219 71.242188 190.578125 71.378906 190.578125 Z M 71.378906 190.214844 C 71.730469 190.214844 72.019531 190.5 72.019531 190.851562 C 72.019531 191.199219 71.730469 191.488281 71.378906 191.488281 C 71.027344 191.488281 70.738281 191.199219 70.738281 190.851562 C 70.753906 190.5 71.027344 190.214844 71.378906 190.214844 Z M 71.5 189.773438 C 71.621094 189.789062 71.730469 189.820312 71.820312 189.863281 L 71.957031 189.683594 L 72.035156 189.726562 L 72.109375 189.773438 L 72.019531 189.984375 C 72.109375 190.046875 72.1875 190.136719 72.261719 190.226562 L 72.476562 190.136719 L 72.523438 190.214844 L 72.570312 190.289062 L 72.386719 190.425781 C 72.429688 190.53125 72.460938 190.636719 72.476562 190.742188 L 72.707031 190.773438 L 72.707031 190.925781 L 72.476562 190.957031 C 72.460938 191.078125 72.429688 191.183594 72.386719 191.273438 L 72.570312 191.410156 L 72.523438 191.488281 L 72.476562 191.5625 L 72.261719 191.472656 C 72.203125 191.5625 72.109375 191.636719 72.019531 191.714844 L 72.109375 191.925781 L 72.035156 191.972656 L 71.957031 192.019531 L 71.820312 191.835938 C 71.714844 191.882812 71.609375 191.910156 71.5 191.925781 L 71.46875 192.152344 L 71.316406 192.152344 L 71.289062 191.925781 C 71.164062 191.910156 71.058594 191.882812 70.96875 191.835938 L 70.828125 192.019531 L 70.753906 191.972656 L 70.675781 191.925781 L 70.769531 191.714844 C 70.675781 191.652344 70.601562 191.5625 70.523438 191.472656 L 70.3125 191.5625 L 70.265625 191.488281 L 70.21875 191.410156 L 70.402344 191.273438 C 70.355469 191.167969 70.328125 191.0625 70.3125 190.957031 L 70.082031 190.925781 L 70.082031 190.773438 L 70.3125 190.742188 C 70.328125 190.621094 70.355469 190.515625 70.402344 190.425781 L 70.21875 190.289062 L 70.265625 190.214844 L 70.3125 190.136719 L 70.523438 190.226562 C 70.585938 190.136719 70.675781 190.0625 70.769531 189.984375 L 70.675781 189.773438 L 70.753906 189.726562 L 70.828125 189.683594 L 70.96875 189.863281 C 71.074219 189.820312 71.179688 189.789062 71.289062 189.773438 L 71.316406 189.546875 L 71.46875 189.546875 Z M 71.5 189.773438 " fill-opacity="1" fill-rule="evenodd"/><path fill="#060606" d="M 70.144531 185.996094 C 70.570312 185.996094 70.90625 186.332031 70.90625 186.757812 C 70.90625 187.179688 70.570312 187.515625 70.144531 187.515625 C 69.714844 187.515625 69.382812 187.179688 69.382812 186.757812 C 69.382812 186.332031 69.714844 185.996094 70.144531 185.996094 Z M 70.144531 186.484375 C 70.296875 186.484375 70.417969 186.605469 70.417969 186.757812 C 70.417969 186.90625 70.296875 187.027344 70.144531 187.027344 C 69.992188 187.027344 69.871094 186.90625 69.871094 186.757812 C 69.871094 186.605469 69.992188 186.484375 70.144531 186.484375 Z M 70.144531 186.117188 C 70.496094 186.117188 70.785156 186.40625 70.785156 186.757812 C 70.785156 187.105469 70.496094 187.394531 70.144531 187.394531 C 69.792969 187.394531 69.503906 187.105469 69.503906 186.757812 C 69.503906 186.40625 69.792969 186.117188 70.144531 186.117188 Z M 70.25 185.679688 C 70.371094 185.695312 70.480469 185.726562 70.570312 185.769531 L 70.707031 185.589844 L 70.785156 185.632812 L 70.859375 185.679688 L 70.769531 185.890625 C 70.859375 185.953125 70.9375 186.042969 71.011719 186.132812 L 71.226562 186.042969 L 71.273438 186.117188 L 71.316406 186.195312 L 71.136719 186.332031 C 71.179688 186.4375 71.210938 186.542969 71.226562 186.648438 L 71.457031 186.679688 L 71.457031 186.832031 L 71.226562 186.863281 C 71.210938 186.984375 71.179688 187.089844 71.136719 187.179688 L 71.316406 187.316406 L 71.273438 187.394531 L 71.226562 187.46875 L 71.011719 187.378906 C 70.953125 187.46875 70.859375 187.542969 70.769531 187.621094 L 70.859375 187.832031 L 70.785156 187.878906 L 70.707031 187.921875 L 70.570312 187.742188 C 70.464844 187.785156 70.355469 187.816406 70.25 187.832031 L 70.21875 188.058594 L 70.066406 188.058594 L 70.035156 187.832031 C 69.914062 187.816406 69.808594 187.785156 69.714844 187.742188 L 69.578125 187.921875 L 69.503906 187.878906 L 69.425781 187.832031 L 69.519531 187.621094 C 69.425781 187.558594 69.351562 187.46875 69.273438 187.378906 L 69.0625 187.46875 L 69.015625 187.394531 L 68.96875 187.316406 L 69.152344 187.179688 C 69.105469 187.074219 69.078125 186.96875 69.0625 186.863281 L 68.832031 186.832031 L 68.832031 186.679688 L 69.0625 186.648438 C 69.078125 186.527344 69.105469 186.421875 69.152344 186.332031 L 68.96875 186.195312 L 69.015625 186.117188 L 69.0625 186.042969 L 69.273438 186.132812 C 69.335938 186.042969 69.425781 185.96875 69.519531 185.890625 L 69.425781 185.679688 L 69.503906 185.632812 L 69.578125 185.589844 L 69.714844 185.769531 C 69.824219 185.726562 69.929688 185.695312 70.035156 185.679688 L 70.066406 185.453125 L 70.21875 185.453125 Z M 70.25 185.679688 " fill-opacity="1" fill-rule="evenodd"/><path fill="#060606" d="M 83.257812 159.734375 C 83.808594 159.734375 84.234375 160.175781 84.234375 160.707031 C 84.234375 161.234375 83.792969 161.675781 83.257812 161.675781 C 82.710938 161.675781 82.28125 161.234375 82.28125 160.707031 C 82.28125 160.175781 82.710938 159.734375 83.257812 159.734375 Z M 83.257812 160.355469 C 83.457031 160.355469 83.609375 160.507812 83.609375 160.707031 C 83.609375 160.902344 83.457031 161.054688 83.257812 161.054688 C 83.058594 161.054688 82.90625 160.902344 82.90625 160.707031 C 82.90625 160.507812 83.058594 160.355469 83.257812 160.355469 Z M 83.257812 159.886719 C 83.714844 159.886719 84.082031 160.25 84.082031 160.707031 C 84.082031 161.160156 83.714844 161.523438 83.257812 161.523438 C 82.800781 161.523438 82.433594 161.160156 82.433594 160.707031 C 82.433594 160.25 82.800781 159.886719 83.257812 159.886719 Z M 83.410156 159.324219 C 83.5625 159.339844 83.699219 159.386719 83.839844 159.429688 L 84.019531 159.203125 L 84.113281 159.25 L 84.203125 159.296875 L 84.097656 159.566406 C 84.21875 159.660156 84.324219 159.75 84.402344 159.871094 L 84.675781 159.765625 L 84.769531 159.945312 L 84.539062 160.128906 C 84.601562 160.265625 84.632812 160.402344 84.644531 160.554688 L 84.9375 160.597656 L 84.9375 160.8125 L 84.644531 160.855469 C 84.632812 161.007812 84.585938 161.144531 84.539062 161.28125 L 84.769531 161.464844 L 84.675781 161.644531 L 84.402344 161.539062 C 84.3125 161.660156 84.21875 161.765625 84.097656 161.84375 L 84.203125 162.117188 L 84.113281 162.160156 L 84.019531 162.207031 L 83.839844 161.980469 C 83.699219 162.039062 83.5625 162.070312 83.410156 162.085938 L 83.367188 162.375 L 83.152344 162.375 L 83.105469 162.085938 C 82.953125 162.070312 82.816406 162.023438 82.679688 161.980469 L 82.496094 162.207031 L 82.40625 162.160156 L 82.3125 162.117188 L 82.417969 161.84375 C 82.296875 161.75 82.191406 161.660156 82.113281 161.539062 L 81.839844 161.644531 L 81.792969 161.554688 L 81.75 161.464844 L 81.976562 161.28125 C 81.917969 161.144531 81.886719 161.007812 81.871094 160.855469 L 81.582031 160.8125 L 81.582031 160.597656 L 81.871094 160.554688 C 81.886719 160.402344 81.933594 160.265625 81.976562 160.128906 L 81.75 159.945312 L 81.792969 159.855469 L 81.839844 159.765625 L 82.113281 159.871094 C 82.207031 159.75 82.296875 159.644531 82.417969 159.566406 L 82.3125 159.296875 L 82.40625 159.25 L 82.496094 159.203125 L 82.679688 159.429688 C 82.816406 159.371094 82.953125 159.339844 83.105469 159.324219 L 83.152344 159.039062 L 83.367188 159.039062 Z M 83.410156 159.324219 " fill-opacity="1" fill-rule="evenodd"/><path fill="#060606" d="M 81.917969 156.535156 C 82.144531 156.503906 82.359375 156.671875 82.390625 156.898438 C 82.417969 157.125 82.253906 157.339844 82.023438 157.371094 C 81.792969 157.398438 81.582031 157.234375 81.550781 157.003906 C 81.519531 156.777344 81.6875 156.566406 81.917969 156.535156 Z M 82.28125 156.367188 L 82.601562 155.960938 C 82.40625 155.835938 82.175781 155.777344 81.945312 155.777344 L 82.023438 156.292969 C 82.097656 156.292969 82.191406 156.324219 82.28125 156.367188 Z M 82.617188 156.746094 L 83.136719 156.671875 C 83.074219 156.445312 82.953125 156.230469 82.800781 156.082031 L 82.480469 156.488281 C 82.527344 156.582031 82.585938 156.65625 82.617188 156.746094 Z M 82.574219 157.261719 L 82.984375 157.582031 C 83.105469 157.382812 83.167969 157.15625 83.167969 156.929688 L 82.648438 157.003906 C 82.632812 157.097656 82.617188 157.1875 82.574219 157.261719 Z M 82.175781 157.597656 L 82.253906 158.113281 C 82.480469 158.050781 82.695312 157.929688 82.847656 157.777344 L 82.433594 157.460938 C 82.359375 157.519531 82.265625 157.566406 82.175781 157.597656 Z M 81.671875 157.550781 L 81.351562 157.960938 C 81.550781 158.082031 81.78125 158.140625 82.007812 158.140625 L 81.933594 157.628906 C 81.839844 157.628906 81.75 157.597656 81.671875 157.550781 Z M 81.335938 157.171875 L 80.820312 157.246094 C 80.878906 157.476562 81 157.6875 81.152344 157.839844 L 81.472656 157.429688 C 81.414062 157.339844 81.367188 157.261719 81.335938 157.171875 Z M 81.367188 156.65625 L 80.957031 156.339844 C 80.832031 156.535156 80.773438 156.761719 80.773438 156.988281 L 81.292969 156.914062 C 81.304688 156.839844 81.335938 156.730469 81.367188 156.65625 Z M 81.109375 156.15625 L 81.519531 156.472656 C 81.597656 156.414062 81.671875 156.367188 81.765625 156.339844 L 81.6875 155.824219 C 81.460938 155.867188 81.261719 155.988281 81.109375 156.15625 Z M 81.933594 155.277344 C 82.113281 155.277344 82.28125 155.292969 82.449219 155.335938 L 82.632812 155.035156 L 82.753906 155.078125 L 82.878906 155.125 L 82.785156 155.457031 C 82.9375 155.550781 83.074219 155.65625 83.199219 155.777344 L 83.503906 155.609375 L 83.578125 155.714844 L 83.65625 155.824219 L 83.410156 156.082031 C 83.503906 156.230469 83.5625 156.382812 83.609375 156.566406 L 83.960938 156.566406 L 83.992188 156.808594 L 83.65625 156.898438 C 83.65625 157.082031 83.640625 157.246094 83.59375 157.414062 L 83.898438 157.597656 L 83.851562 157.71875 L 83.808594 157.839844 L 83.472656 157.75 C 83.378906 157.898438 83.273438 158.035156 83.152344 158.15625 L 83.320312 158.460938 L 83.210938 158.535156 L 83.105469 158.613281 L 82.847656 158.371094 C 82.695312 158.460938 82.542969 158.523438 82.359375 158.566406 L 82.359375 158.914062 L 82.238281 158.929688 L 82.113281 158.945312 L 82.023438 158.613281 C 81.839844 158.613281 81.671875 158.597656 81.503906 158.550781 L 81.320312 158.855469 L 81.199219 158.808594 L 81.078125 158.765625 L 81.167969 158.429688 C 81.015625 158.339844 80.878906 158.234375 80.757812 158.113281 L 80.453125 158.277344 L 80.375 158.171875 L 80.285156 158.082031 L 80.527344 157.824219 C 80.4375 157.671875 80.375 157.519531 80.332031 157.339844 L 79.980469 157.339844 L 79.949219 157.097656 L 80.285156 157.003906 C 80.285156 156.824219 80.300781 156.65625 80.347656 156.488281 L 80.039062 156.308594 L 80.132812 156.066406 L 80.46875 156.15625 C 80.558594 156.003906 80.667969 155.867188 80.789062 155.746094 L 80.621094 155.445312 L 80.726562 155.367188 L 80.832031 155.292969 L 81.09375 155.535156 C 81.246094 155.445312 81.398438 155.382812 81.582031 155.335938 L 81.582031 154.988281 L 81.824219 154.957031 Z M 81.933594 155.277344 " fill-opacity="1" fill-rule="evenodd"/><g fill="#000000" fill-opacity="1"><g transform="translate(138.244411, 178.095692)"><g><path d="M 11.535156 0 C 18.875 0 23.390625 -4.65625 23.390625 -12.382812 C 23.390625 -20.039062 18.875 -24.695312 11.535156 -24.695312 L 2.328125 -24.695312 L 2.328125 0 Z M 7.972656 -19.757812 L 11.253906 -19.757812 C 15.207031 -19.757812 17.464844 -17.144531 17.464844 -12.347656 C 17.464844 -7.550781 15.207031 -4.9375 11.253906 -4.9375 L 7.972656 -4.9375 Z M 7.972656 -19.757812 "/></g></g></g><g fill="#000000" fill-opacity="1"><g transform="translate(163.112135, 178.095692)"><g><path d="M 23.882812 0 L 15.101562 -24.695312 L 9.03125 -24.695312 L 0.28125 0 L 6.140625 0 L 7.585938 -4.480469 L 16.511719 -4.480469 L 17.957031 0 Z M 12.066406 -18.132812 L 15.101562 -8.820312 L 8.996094 -8.820312 Z M 12.066406 -18.132812 "/></g></g></g><g fill="#000000" fill-opacity="1"><g transform="translate(187.274399, 178.095692)"><g><path d="M 7.9375 0 L 7.9375 -14.570312 L 17.535156 0 L 22.226562 0 L 22.226562 -24.695312 L 16.617188 -24.695312 L 16.617188 -10.441406 L 7.195312 -24.695312 L 2.328125 -24.695312 L 2.328125 0 Z M 7.9375 0 "/></g></g></g><g fill="#000000" fill-opacity="1"><g transform="translate(211.824663, 178.095692)"><g><path d="M 15.347656 -24.695312 L 10.761719 -13.863281 L 6.210938 -24.695312 L 0.105469 -24.695312 L 7.9375 -8.324219 L 7.9375 0 L 13.582031 0 L 13.582031 -8.253906 L 21.378906 -24.695312 Z M 15.347656 -24.695312 "/></g></g></g><g fill="#004aad" fill-opacity="1"><g transform="translate(233.29519, 178.095692)"><g><path d="M 23.882812 0 L 15.101562 -24.695312 L 9.03125 -24.695312 L 0.28125 0 L 6.140625 0 L 7.585938 -4.480469 L 16.511719 -4.480469 L 17.957031 0 Z M 12.066406 -18.132812 L 15.101562 -8.820312 L 8.996094 -8.820312 Z M 12.066406 -18.132812 "/></g></g></g><g fill="#004aad" fill-opacity="1"><g transform="translate(257.457454, 178.095692)"><g><path d="M 8.007812 0 L 8.007812 -24.695312 L 2.328125 -24.695312 L 2.328125 0 Z M 8.007812 0 "/></g></g></g></svg>